<?xml version="1.0" encoding="UTF-8"?>
<svg id="Layer_1" data-name="Layer 1" xmlns="http://www.w3.org/2000/svg" viewBox="0 0 461.87 225.93">
  <defs>
    <style>
      .cls-1 {
        fill: #fff;
        stroke: #231f20;
        stroke-miterlimit: 10;
      }
    </style>
  </defs>
  <path class="cls-1" d="M457.54,112.73c1.19.89.99.23,1.21.3-2.07-1.36-1.22-.17-1.21-.3Z"/>
  <polygon class="cls-1" points="438.24 97.41 438.66 97.62 435.9 95.19 438.24 97.41"/>
  <path class="cls-1" d="M424.32,78.91c.13.56.44,1.31.93,2.14.52.81,1.17,1.72,1.86,2.66.69.95,1.42,1.95,2.13,2.91.68.99,1.46,1.86,2.03,2.72l.29.64,1.6,1.11c-1.57-1.95-3.51-4.1-5.02-6.34-1.58-2.19-3.08-4.23-3.83-5.84Z"/>
  <path class="cls-1" d="M419.87,67.35c.08.79-1.39-2.27,1.19,2.59-.09-.26-.11-.34-.17-.49-.22-.44-.51-1.06-1.02-2.1Z"/>
  <path class="cls-1" d="M420.89,69.44c1.09,2.15-.49-1.52,0,0h0Z"/>
  <path class="cls-1" d="M416.25,59.31l1.45,2.84c-.1-.68-1.15-3.29-.64-2.37-.36-.73-.58-1.25-.72-1.59-.15-.33-.24-.47-.29-.46-.08.02,0,.66.2,1.58Z"/>
  <path class="cls-1" d="M414.77,56.63l.63,1.53c-.03-.3-.15-.72-.63-1.53Z"/>
  <path class="cls-1" d="M416.88,61.35c-.5-1.06-1.07-2.09-1.48-3.19.05.47-.19.62.62,1.49-.31-.19.15.38.86,1.7Z"/>
  <path class="cls-1" d="M417.55,63.22c.54,1.71,1.34,3.9-.11,1.03,1.17,2.83,1.99,3.89,1.98,3.65,0-.13-.16-.59-.51-1.37-.31-.79-.75-1.91-1.36-3.31Z"/>
  <path class="cls-1" d="M423.09,78.26l1.05,2.21c.4.57.87,1.11,1.34,1.64-.76-.76-2.24-4.11-2.38-3.85Z"/>
  <path class="cls-1" d="M411.27,40.18c-.19-.17-.2,1.12-.34,1.4l.61,2.27c-.13-1.21-.46-3.47-.27-3.67Z"/>
  <path class="cls-1" d="M410.93,41.58l-.92-3.41c.57,3.1.8,3.64.92,3.41Z"/>
  <path class="cls-1" d="M413.84,56.35l1.19,2.67c.4.89.9,1.73,1.35,2.6-1.12-2.04-1.98-4.2-2.91-6.34l.37,1.06Z"/>
  <polygon class="cls-1" points="409.56 26.94 410.01 28.89 409.31 25.4 409.56 26.94"/>
  <path class="cls-1" d="M409.29,18.08c.25,1.47.54-1.99.68-.45,0-1.2-.05-2.31-.12-3.35-.02-.26-.04-.52-.06-.77-.02-.08,0-.39.01-.6,0-.23.02-.45.03-.68.03-.87.06-1.72.08-2.55-.06.87-.12,1.77-.21,2.7-.02.23-.04.47-.06.7l-.03.33v.2c-.01.27-.02.54-.03.81-.05,1.1-.14,2.3-.3,3.65Z"/>
  <path class="cls-1" d="M410.11,4.49c-.09,1.61-.13,3.27-.19,5.2.12-1.84.2-3.61.19-5.2Z"/>
  <path class="cls-1" d="M409.25,32.21c.06-.28.23-.83.1-2.79l-.26,1.41c.05.42.1.9.16,1.38Z"/>
  <path class="cls-1" d="M409.08,30.88v-.05c-.08-.75-.15-1.38-.21-1.88-.02-.5-.04-.88-.05-1.1,0,.19.02.52.04,1.01.05.49.12,1.15.22,2.02Z"/>
  <path class="cls-1" d="M409.29,32.55c-.01-.13-.03-.22-.04-.35-.03.14-.03.22.04.35Z"/>
  <path class="cls-1" d="M411.54,47.33c-.37-.98-.94-2.49-1.23-3.27-.27-.78-.51-.77-.17,1.32.67,1.38.25-.99,1.41,1.95Z"/>
  <path class="cls-1" d="M408.97,34.34c.12,1.25.21,2.5.45,3.74.1-.09.13-.78.44.21-.17-.65-.38-1.3-.5-1.96l-.39-1.98Z"/>
  <polygon class="cls-1" points="408.61 32.52 408.97 34.34 408.84 32.95 408.61 32.52"/>
  <path class="cls-1" d="M408.79,14.54c-.03-.42-.07-.8-.08-1.27.05-.67.09-1.36.14-2.06.12-1.39.25-2.86.38-4.41-.2,1.68-.4,3.38-.6,5.08l-.14,1.25c-.03.24-.02.32-.03.47v.4c-.03.54-.05,1.07-.06,1.6.13.3.35,1.23.39-1.06Z"/>
  <path class="cls-1" d="M408.58,22.48c-.01-.11-.03-.25-.04-.36-.03.22-.03.4.04.36Z"/>
  <path class="cls-1" d="M391.31,10.61c.11-.03.21-.05.32-.08.01-.03.02-.06.03-.1l-.36.18Z"/>
  <path class="cls-1" d="M408.32,15.95c-.12,1.61-.04,2.58.07,3.5-.01-1.2,0-2.48.02-3.85-.06-.14-.1-.16-.09.36Z"/>
  <path class="cls-1" d="M405.75,2.74c1.28-.55,2.68-1.18,4.12-1.83-1.06.39-3.58,1.44-4.12,1.83Z"/>
  <path class="cls-1" d="M408.63,21.58c.01.08.02.15.03.24.07-.53.02-.46-.03-.24Z"/>
  <path class="cls-1" d="M408.63,21.58c-.11-.83-.15-1.48-.24-2.13,0,.98.02,1.89.15,2.67.02-.2.06-.4.09-.54Z"/>
  <path class="cls-1" d="M387.16,15.86c.07-.49,3.75-2.8,7.26-4.14,3.14-1.94.4-2.01-2.79-1.18-.02.21.05.35-3.2,2.3,1.28-.42,7.69-3.41,5.02-1.62-4.36,2.49-3.71,1.76-5.97,2.7,2.06-.52-5.32,3.59-4.02,3.72l3.78-2.26c.13.06-1.2.96-.07.49Z"/>
  <path class="cls-1" d="M398.07,7.27l1.36-.76c-1.61.75-2.82,1.19-5.04,1.98-2.22,1.36-2.63,1.74-2.73,1.94l6.85-3.46-.45.3Z"/>
  <path class="cls-1" d="M409.25,1.51c-1.11.81-2.91,1.9-4.03,2.64-1.13.75-1.54,1.14-.29.77,2.58-1.23,4.13-2.6,3.69-1.31.05.58.16.85.07,2.64.45-5.04.45-4.41.46-3.48,0,.47.01,1.04.08.99.04-.03.09-.21.16-.65.03-.22.08-.5.14-.86.03-.18.05-.38.08-.6l.02-.17c0-.06.03-.14-.04-.08-.1.05-.21.1-.32.15l.4-.22c.03.08,0,.24,0,.36-.02.26-.04.51-.05.76-.04.51-.08,1-.12,1.49-.09.99-.17,1.94-.25,2.86.14-1.05.27-2.09.4-3.1.07-.52.14-1.03.21-1.54.04-.26.07-.51.1-.77l.05-.38.03-.19-.16.07c.08-.03.18-.1.13.05v.05s0,0-.01,0c-.11.59-.17.8-.07.19,0-.02.02-.18,0-.21-.14.14-.4.33-.67.52-2.97,1.41-.38.07.67-.52.04-.02.04.05.07.02,0-.01,0-.03.01-.05v-.09s-.08.05-.08.05l-.17.09-.35.19-.7.37-1.38.74-2.72,1.45-5.16,2.76c.52-.25,1.06-.52,1.67-.81.65-.33,1.35-.68,2.15-1.08,1.59-.82,3.53-1.82,6-3.1Z"/>
  <path class="cls-1" d="M408.43,41.74c0-.23.03-.23.05-.25-.14-.46-.21-.63-.05.25Z"/>
  <path class="cls-1" d="M408.11,38.71c.16.52.41.92.7,2.63.16,1.51-.2.03-.33.14.31,1.01.99,3.54.58.27l-.16-.5c-.21-1.47-.36-3.15-.43-4.4,0-1.26.06-2.09.12-1.84-.28.9-.51,1.7-.48,3.7Z"/>
  <path class="cls-1" d="M407.3,21.64c-.1-2.02-.06-4.05-.1-6.08l-.45,3.1.23-.16c-.19,3.47.14,2.72.32,3.14Z"/>
  <polygon class="cls-1" points="390.59 10.75 391.11 9.97 388.24 12.17 390.59 10.75"/>
  <polygon class="cls-1" points="383.51 14.48 383.59 14 381.83 15.18 383.51 14.48"/>
  <path class="cls-1" d="M182.89,112.36l-.94,1.64c.46-.77.74-1.27.94-1.64Z"/>
  <path class="cls-1" d="M188.49,99.8l-.11-.38c-.05.66-.06.93.11.38Z"/>
  <path class="cls-1" d="M324.91,84.18c-1.47.53-3.09.99-4.03,1.35l-15.52,5.99,17.09-.1c.78,0,1.23-.06,1.07-.23l-.92-.34c-.07,0-.13.02-.18.03l-13.28,1.83,11.99-6.69c1.52-.85,2.74-1.38,3.79-1.84Z"/>
  <path class="cls-1" d="M250.64,68.6c.25.03.51.07.77.11.63-.17,1.23-.33,1.76-.47-.76.11-1.63.24-2.54.37Z"/>
  <path class="cls-1" d="M248.84,70.46l-3.48-.16c.78.07,1.9.13,3.48.16Z"/>
  <path class="cls-1" d="M145.56,169.71l.48,1.86c-.06-2.91-.26-1.63-.48-1.86Z"/>
  <path class="cls-1" d="M311.64,53.82c-1.91.91-3.44,1.69-4.74,2.4l-13.28,7.26,15.04-2.38c.14-.02.25-.04.36-.06-.12,0-.25.02-.36.03l-15.02,1.14,13.29-5.97c2.36-1.06,4.3-1.79,4.73-2.43Z"/>
  <path class="cls-1" d="M181.36,105.63c-.4.98-.52,1.42-.42,1.44.42-1.01.61-1.59.42-1.44Z"/>
  <path class="cls-1" d="M315.46,59.94c-.4.03-.79.06-1.2.1-1.62.34-3.25.69-5.25,1,2.02-.16,4.31-.44,6.45-1.1Z"/>
  <path class="cls-1" d="M16.52,216.96c-.07.03-.14.08-.21.11.04.04.12-.02.21-.11Z"/>
  <path class="cls-1" d="M67.07,214.61c-.72-.01-1.89-.09-3-.07.54.03,1.44.03,3,.07Z"/>
  <path class="cls-1" d="M354.99,29.4c1.48-.83.21-.17,0,0h0Z"/>
  <path class="cls-1" d="M363.07,27.01c-.29.21-.51.4-.5.51.07-.16.25-.33.5-.51Z"/>
  <path class="cls-1" d="M331.75,54.97s.09,0,.15-.01c-.51-.04-.42-.03-.15.01Z"/>
  <path class="cls-1" d="M357.33,28.37c-.59.25-1.25.56-1.97.92.32-.14.92-.41,1.97-.92Z"/>
  <path class="cls-1" d="M356.93,28.35c.52-.26.93-.47,1.33-.66.15-.16-.03-.12-1.33.66Z"/>
  <path class="cls-1" d="M352.92,30.55c.85-.47,1.66-.88,2.44-1.27-.31.13-.44.18-.37.12-.44.24-1.05.58-2.07,1.15Z"/>
  <path class="cls-1" d="M90.62,209.07c-.11-.02-.24-.05-.36-.08-1.74,0-.98.05.36.08Z"/>
  <path class="cls-1" d="M340.17,70.32c.07.01.11.02.18.03-.07-.03-.16-.06-.23-.08l.04.05Z"/>
  <path class="cls-1" d="M334.42,69.41c2.54-.14,3.94.24,5.71.86-.5-.59-1.03-1.14-1.58-1.7-.7.1-1.4.23-2.09.38-.69.13-1.37.29-2.05.46Z"/>
  <path class="cls-1" d="M162.16,136.4l3.22-2.79c-3.12,4.13-5.72,6.65-2.64,4.15-.3-.69,2.51-3.67,5.4-6.67,2.89-2.99,5.75-6.13,5.44-6.81l2.13-1.95c-.56.61-.59.76-1.14,1.35,2.12-1.85,2.58-2.87,3.16-4,.54-1.18,1.2-2.49,3.37-5.4.74-1.03,1.39-1.9,1.76-2.31.34-.44.44-.38.04.4.9-1.69,1.75-3.4,2.46-5.18.39-.74.57-1,.58-.89.03.12-.17.61-.55,1.35.67-1.3,1.15-2.7,1.71-4.06l.67-2.11c.23-.7.44-1.41.6-2.14l.02.07c.15-1.28.3-4.21.14-5.64.23-2.3.13,1.16.29.58-.02-1.69-.22-3.4-.71-5.04-.08-1.06.25-.59.61.64.36,1.23.56,3.24.37,4.99.84-2.35.65-3.57.18-5.36-.25-.9-.63-1.97-1.27-3.39-.64-1.41-1.6-3.17-3.17-5.27,1.12,1.18,2.17,2.52,3.01,4.03-.43-1.66-1.41-3.29-2.76-4.89-.67-.81-1.45-1.58-2.3-2.41-.43-.39-.87-.82-1.34-1.23-.12-.12-.05-.09-.06-.13,0-.03.02-.05.04-.07-.03.02-.06.05-.08.09-.01.02-.02.05-.03.08,0,.02,0,.04,0,.06v.02s.06.06.06.06l.13.13c.69.71,1.46,1.58,2.03,2.35.58.76.96,1.42.95,1.62-.01.21-.38-.07-1.42-.95-.52-.57-1.15-1.18-1.96-1.84-.1-.08-.21-.17-.31-.25-.09-.07-.18-.13-.27-.2-.1-.07-.19-.13-.31-.19-.22-.13-.49-.26-.82-.42.38-.14.06-.42-.56-.81l-.1-.06s-.1-.04-.04-.06c.06-.04.13-.08.2-.12.13-.08.28-.17.44-.25.3.11.62.22.94.32.19-.21.27-.38.33-.55.07-.18.12-.37.49-.63,1.8-.5,2.96-.58,3.76-.55.8.04,1.24.18,1.72.33,2.99-.38,1.95-.41,1.01-.53-.46-.04-.9-.1-.77-.22.13-.12.81-.32,2.63-.54,5.14-.26,8.87-.54,15.21-1.16,3.73.1-.64.41.7.55l3.28-.62c.81-.01.55.15.42.23,2.77-.29.21-.65,4.57-.97,1.15-.74,9,.73,14.38-.25,1.34.14-.63.41-.21.65,7.4-.77,6.34-.59,12.41-1.5l5.2.25c-3.83-.35,1.02-1.08,5.27-1.69-1.36-.19-2.52-.35-3.3-.42l6.8-.57c.83.08.15.32-.96.62.46-.07.9-.14,1.24-.19,2.44.15,1.19.57-.54.98-.83-.11-1.66-.21-2.46-.31-1.67.44-3.23.93-2.87,1.29.44-.09,1.29-.18,2.23-.25-.44.12-.71.22-.51.28.23.06.94-.11,2.05-.31l1.57.66.37-.3,8.92.15c6.35-.93,11.86-2.17,21.96-2.81-2.49.61-.51.87-.63,1.5-2.78-.56-7.82.54-13.07.58,2.74-.02,2.14.29,1.45.42l9.33-.91c-.2.51,2,.31,4.44.44-1.87-.94,6.95-.9,10.74-1.33.25.33-.66.7-5.3.78,5.14.58,6.58-1.4,11.63-.93-1.13.05-1.75.02-2.19.2,2.64-.39,9.11-.37,7.6-.02l-1.13.04c3.75-.1,9.45-.25,14.36-.39,4.88-.12,8.92.04,9.52-.31.06.11-1.07.91-1.52,1.06,4.43-.58,8.93-.74,13.61-.07-.75.13-.06,1.01-.21,1.58-.06.29-.25.5-.63.62-.17.06-.57.04-1.01-.02-.45-.07-1.03-.18-1.77-.33.4.15.84.28,1.29.47.41.16.86.32,1.36.51.26.11.55.22.89.34.18.07.36.14.56.21.11.04.22.08.33.11.05.02.13.04.16.07l-.05.14.1-.11s.08-.09.05-.1c-.02-.05-.04-.11-.05-.18-.02-.13-.02-.28,0-.42.05-.27.24-.47.89-.21.13.12.26.23.37.33l.08.07s-.05.08-.07.11c-.06.08-.13.15-.19.23-.22.27-.4.49-.57.69-.29.37-.51.59-.71.83-.21.24-.39.48-.73.8-.23.26-.5.56-.83.91-.35.33-.76.72-1.25,1.18,1.2-1.25.96,1.05-1.15,3.01.2-.42-.94-.67-.29-1.43-1.34,1.85-2.93,3.57-4.72,5.12,1.37-1.11-.26-.93-1.71-.46.35-.09-.9.68-2.53,1.37-1.63.7-3.61,1.31-4.47,1.56.48-.06.94-.17,1.41-.27.47-.11.95-.19,1.4-.33-3.94,1.27-5.76,1.85-7.75,2.49l.47,1.78c1.51-1.18,3.13-2.38,6.44-4.15-.74.67-1.45,2.43,2.25.55,1.4-1.44,5.91-6.52,11.47-10.89l1.31-.5c1.42-1.13,2.82-2.3,4.2-3.48-1.09,1.36-3.32,3.8-5.84,6.28-2.52,2.5-5.37,4.98-7.46,6.64,2.76-1.38.95-.08,4.85-2.56,1.55-.62-1.88,1.76-3.05,2.46,3.12-1.79,6.18-3.7,9.17-5.69-.39-.14,1.22-1.44,2.8-2.79,1.59-1.33,3.14-2.71,2.81-2.8-2.95,2.54-6,4.97-9.12,7.31-.76-.32,4.6-5.22,10.58-9.81,1.68-.98-.4,1.83-.14,1.91.66-.77,5.37-4.84,5.98-5.2-.74.79-1.49,1.57-2.25,2.34,1.73-1.23,2.9-2.54,4.17-3.87.32-.33.64-.67.98-1.02.18-.17.35-.35.53-.52.26-.24.52-.48.78-.73,1.06-1.01,2.24-2.04,3.83-3.3.93-.86,2.64-2.2,4.23-3.51-1.32-.54-2.79-.99-3.29-.92.69.34,1.04.67,1.07.96.02.15-.04.28-.17.41-.15.13-.25.23-.65.37-1.5.65-2.58.86-3.25.88-.23.03-.48.07-.76.1-.27.03-.53.05-.76.05-.15-.04-1.21-.59-2.93-1.11-.43-.14-.87-.3-1.37-.43-.58-.15-1.15-.29-1.67-.42-1.05-.28-1.93-.51-2.41-.64-1.39-.44-.29-.69.88-.92,1.17-.19,2.41-.35,1.21-.78-.07.08-.5.12-1.01.14-.51.03-1.08.06-1.42.06-1.83-.32.83-.53-3.21-.77-.36.33-2.4.16-3.58.13-1.18-.03-1.48-.11,1.64.33-3.92.06-4.17-.28-8.77-.15,1.46.38-4.05,1.64-7.87,2.22.21-.19-.68-.33-1.11-.4-3.96.36-7,.69-9.97,1.04-2.97.35-5.87.74-9.53,1.36-.7-.05-4.26.37-2.81-.18-.44.14-.86.27-1.39.43l.61,1.69c.56-.42,1.29-.93,2.42-1.59,4.14-1.68-4.38,2.6-1.1,1.55.05-.48,4.86-3.41,7.58-5.22-1.13-.04-6.16,3.31-8.94,5.19l-.56-1.55c.17-.04.31-.08.44-.11.02.09-.03.2-.39.36l.39,1.08c.36-1.06,4.54-4.31,10.37-7.99,5.27-3.2,2.6-.83,3.47-1.46,10.17-5.52,7.89-6.1,16.59-10.22,3.6-1.36.67.85,1.59.79-4.3,2.6-6.91,3.42-9.87,5.09l3.78-1.81c-1.31.93-4.17,2.68-5.84,3.43,3.01-1.15,17.13-9.4,25.2-13.24,1.31-.91,3.63-2.38,2.38-1.95l-2.45,1.41c-2.49.85,4.39-3.06,1.15-1.53,3.19-2.07,6.7-4.51,11.53-6.8l1.17.07c-.18-.1-3.25,1.32-4.48,2.19,1.83-1.29,7.61-3.12,9.39-4.96l-3.5,1.37c3.22-2.05,7.07-4.83,11.35-6.85-2.19.46-.93.57-4.24,1.5,2.98-.59-10.72,5.62-6.15,4.25-3.43.89-5.43,2.49-9.74,4.01.22.11,1.59-.42-1.96,1.38-.13.14-.47.4-.68.57-.11.05-.15.07-.24.11.07-.03.13-.05.2-.08-.14.11-.15.12.08-.03.88-.37,1.6-.64,1.93-.69-1.52,1.34-7.08,4.33-8.84,5.56-2.12,1.04.76-.67-.48-.25l-2.63,1.84c-.49-.24-5.85,2.34-1.11-.55l-4.39,2.38c-2.7,1.19-6.3,3.06-8.39,4.43-2.11,1.05-4.96,3.33-3.34,2.02l-6.71,4.06-.12-.06c-5.29,2.91-10.54,6.43-16.43,9.6l-11.02,5.91,12.5-1.82c1.85-.27,3.75-.5,5.68-.64,2.54-.54,5.15-1.11,9.44-1.6l.89.27c3.26-.62,9.85-.79,11.22-1.24,1.8.36,5.74.2,9.94.18,1.05.02,2.12-.01,3.17.02,1.05.04,2.09.08,3.08.12,1.98.16,3.79.3,5.17.58l.28-.47c.75.11,1.48.22,2.24.33.46.06,1.05.15,1.65.27-.22.27-.46.59-.78.96.23,0,.46-.02.71-.04-.28.38-.74.85-1.29,1.32-.94.81-2.1,1.79-3.3,2.71-2.4,1.9-5.13,3.88-7.81,5.93.27-.4,1.65-1.41,2.67-2.08-3.48,2.1-6.78,4.74-10.11,7.25-3.32,2.51-6.67,4.87-10.02,6.38-1.49,1.07-2.69,1.63-3.86,2.16.15-.08.28-.16.38-.24-.16.09-.41.22-.66.36-.75.31-1.52.63-2.35.97.72-.26,1.41-.52,1.99-.78-1.24.67-3.1,1.71-4.92,2.74l-.82-.03-12.04-.38,13.28,5.05.19.07c.19-.02.34-.04.53-.07,2.28-.06,1.76-.42.54-.65,1.13-.16,2.13-.51,2.89-.73.95.18,2.39-.22,3.85-.78.73-.27,1.45-.61,2.17-.85.71-.27,1.39-.5,2.04-.57.3-.25,1.06-.75,2.03-1.36.47-.33,1-.69,1.55-1.07.54-.39,1.08-.84,1.62-1.27,2.15-1.77,3.88-3.9,3.96-4.61.13.02.62-.42-.19.45.45-.42.88-.86,1.27-1.33.4-.46.82-.91,1.16-1.4.18-.25.36-.5.53-.74.21-.3.43-.61.6-.94.35-.64.68-1.27.97-1.86.45-.36.89-.79,1.37-1.26l.3-.79.15-.38c.04-.12.17-.28-.07-.31l-1.83-.66c-1.17-.44-2.33-.73-3.37-1.04-.78-.39-1.44-.71-1.95-.97-.47-.26-.81-.41-.95-.54-.28-.23.22-.33,1.84,0-.96-.25-1.78-.4-2.49-.54-.71-.15-1.31-.24-1.83-.33-1.05-.19-1.79-.29-2.49-.39-1.41-.19-2.69-.35-5.95-.31l.35-.37c-2.33-.23-6.04.17-7.41-.16-2.58-.45-8.95-.35-16.24-.09-7.31.23-15.63.49-22.19.36,2.58,1.08-6.11-.32-6.6.6-.77-.25-2.6-.34-.49-.65-6.68.49-10.06-.1-14.65.82-.77-.25,1.42-.45.73-.59-.53.08-2.12.31-2.82.17-.69-.14.97-.26,2.03-.42-6.83.28-7.49,1.15-7.96,1.96-3.47-.26-5.2-.15-7.68.46-1.21-.22-3.23-.43,1.01-.66-2.39.04-14.6.11-14.82.75-.75-.14-3.34.06-3.97.16-5.36.14-5.83.1-11.09.34l1.46.06c-2.05.84-4.37.32-8.6.55l.12-.08c-9.74-.23-4.19.41-13.81.09l.54.46c-.43.53-2.56.44-5.29.37-2.73-.07-6.11-.08-8.89.64.69-.04,1.38-.05,2.07-.06-1.5.39-3.68.42-5.92.62-.29.02-.53.05-.87.1-.38.06-.77.12-1.15.2-.76.17-1.52.37-2.29.58-1.46.46-2.84,1.02-3.87,1.56-.99.44,1.16-.82,2.42-1.5-1.18.51-2.12.96-2.86,1.35-.75.37-1.33.69-1.78.94-.88.5-1.15.71-1.15.8.02.09.28.07.44.1.18.03.33.11.37.39.67.33,1.68.89,3.24,1.9.45.5-.3.26-.57.31-.27.05.11.42,2.98,2.45.32.27.86.65,1.49,1.13.38.28.85.63,1.38,1.01.94.7,2.06,1.58,3.08,2.64,1.02,1.06,1.93,2.33,2.47,3.67.56,1.33.75,2.73.64,3.93.11-.53.17-1.06.28-1.17.1-.1.3.21.45,1.46.12,1.94-.49,4.59-1.46,7.08-.49,1.25-.93,2.49-1.42,3.61-.42,1.15-.85,2.17-1.08,3.09-.29.43-.44.57-.51.56-.31.71-.81,1.61-1.32,2.62-.56.98-1.19,2.05-1.83,3.07-1.29,2.04-2.61,3.9-3.04,4.79-1.57.62-4.65,4.48-7.74,7.96-3.06,3.48-5.9,6.72-6.42,6.17-2.29,2.45-4.59,4.86-6.75,7.53l.05-.3c-1.1,1.22-1.88,2.36-2.59,3.29-.66.97-1.18,1.81-1.61,2.53-.82,1.48-1.27,2.56-1.7,3.64-.82,1.27-.41.23-.42.08-2.52,4.08-3.52,6.58-4.31,8.91-.34,1.19-.71,2.31-.91,3.7-.11.69-.27,1.41-.34,2.23-.06.82-.13,1.72-.2,2.74l-.56.79c.01.28,0,.71-.05,1.27-.02.28-.05.59-.08.93,0,.34,0,.71-.01,1.11-.06,1.59.02,3.63.44,5.87.79,4.49,3.5,9.74,7.31,12.85-.1-.03-.33-.09-.92-.6,2.75,2.58,6.13,5.08,9.59,7.09.43.26.86.51,1.29.75l.59.36c.31.19.62.37.92.55.57.33,1.05.58,1.6.8l.1.04s-.05.02-.07.03l-.16.07c-.1.05-.19.09-.28.14-.17.09-.3.19-.4.29-.2.21-.31.46-.29.77-.52.28-1.13.52-1.79.82l-3.06,1.2c1.04-.31,1.81-.53,2.36-.67.27-.07.5-.12.67-.16.13-.02.23-.03.3-.03.28,0,.12.16-.26.39-.86.5-2.33,1.21-.57.81-.81.29-1.76.56-2.67.8-.91.2-1.78.36-2.41.45-1.27.18-1.61.08.42-.52l.66-.09c.62-.65-2.02-.03-4.8.68-2.8.65-5.77,1.26-5.72.94-16.74,3.63-33.61,3.86-49.46,2.26l1.77.92-5.56-.64c-1.44-.33-1.88-.78,2.07-.32-1.01-.34-2.69-.37-4.11-.45-1.43-.06-2.62,0-2.69.07-7.66-1.46,3.14-.39.78-.76l-3.21-.43.71.19c-2.64-.11-2.92.08-7.62-.85-2.92-.84-1.41-.8-2.56-1.1.02-.05-.37-.17-1.77-.45-2.28-.52-4.51-1.25-6.75-1.89l2.54,1.33c-3.08-.58-6.36-1.85-3.42-.33-1.07-.58-3.25-1.29-5.42-2.49-2.19-1.19-3.98-3.3-4.15-6.06-.28-2.72.77-5.52,2.03-7.33.62-.92,1.32-1.61,1.93-2.16.6-.54,1.1-.89,1.4-1.06,2.77-2.57,6.48-4.05,11-5.6l-1.1-2.33c-.35.21-.74.44-1.13.67,1.21-.59,2.23-.45-1.79,1.89.74-2.06-7.58,3.98-11.26,5.25,1.59-.65-1.18,1.19-3.71,2.95-2.52,1.78-4.82,3.45-2.37,2.35-3.29,2.09-.48-.29-3.1,1.12-7.36,5.66-16.92,11.53-25.81,18.82-.03.25,1.64-.73-.12,1-1.77,1.01-3.51,2.08-5.27,3.12-.85.75-1.09,1.28-1.57,1.89-.09.12-.35.4-.57.61-.24.23-.51.47-.83.75-.65.55-1.52,1.2-2.87,2.15.86-.54,2-1.21.51.12-3.24,2.61-6.61,5.43-9.97,8.3-.15.33,1.06.11,1.78.09.8-.06,1.65-.11,2.43-.18,1.59-.14,3.19-.28,4.79-.46,1.57-.14,3.31-.44,4.99-.68l2.6-.49c.83-.15,1.85-.36,2.35-.49,4.89-1.09,9.7-2.47,14.49-3.78,4.79-1.3,9.59-2.57,14.41-3.4,4.81-.85,9.68-1.21,14.44-.95-2.99-.22-1-.4,1.28-.38-1.48-.09.03-.43-.25-.67,3.11.23,6.18.69,9.13,1.45.44-.08,1.26.01,2.26.18.99.21,2.16.5,3.28.88.56.19,1.11.38,1.63.56.52.18.99.4,1.43.56.43.16.81.29,1.12.38.3.1.53.16.67.14-.86-.44-1.8-.72-2.7-1.09.96.21,1.17.09.96-.23-.22-.31-.86-.85-1.65-1.34-1.55-1.07-3.68-2.05-3.27-2.46-2.34-.15-5.22-1.03-8.61-1.55-3.37-.53-7.21-.7-10.89.24-1.67-.04,1.38-.43.48-.57-1.87.58-4.13.86-8.34,1.42l.46-.18c-5.87,1.11-9.95,2.15-14.24,3.14-4.27.99-8.7,2.11-15.06,3.47l1.05.24c-2.69.56-3.61.6-4.02.56-.41.26-.43.36-.13.35.14,0,.36-.03.61-.07.39-.08.83-.17,1.28-.26,1.96-.4,3.95-.88,2.62-.15-.7,0-1.79.13-3.11.34-.82.13-1.8.28-2.84.44-.92.15-1.9.29-2.84.39-.47.05-.92.09-1.33.1-.2,0-.39.01-.58.02-.08,0-.21.02-.23-.01l.28-.22c1.13-.88,2.15-1.57,3.02-1.91.65-.55.32-.45-.06-.3-.38.14-.81.32.1-.44.32-.14.62-.26.89-.37-.05-.12-.08-.27-.07-.44.33-.25.63-.46.89-.61.27-.16.42-.21.81-.45.64-.36,1.04-.49,1.16-.43-.27.21-.64.54-1.01.87-.24.21-.22.22-.3.3-.06.06-.11.12-.16.16.08-.04.16-.08.24-.13l.12-.07.31-.23c.42-.34.87-.69,1.32-1.05.91-.73,1.85-1.52,2.72-2.26,1.74-1.5,3.26-2.79,3.79-3.14l-3.38,2.45c9.04-7.66,20.92-15.91,30.09-22.77l-.85.3c3.51-2.61,5.02-3.52,6.62-4.46,1.6-.94,3.32-1.91,7.33-4.54l-.27.23c1.51-1.21,3.64-2.65,5.9-3.99-1.13.86.48.06,1.48-.37l-1.55-3.29c-.78.16-1.23.21-.11-.31l1.83,3.89s-.03.03-.06.05c.03-.02.05-.04.07-.04l16.54-11.35-18.37,7.45c-4.4,1.78-5.5,2.43-6.17,2.86-.34.22-.58.42-1.07.79-.49.37-1.25.9-2.53,1.93-.49.16-.98.34-1.47.54-.82.81-1.21,1.3-1.85,2.03-.6.74-1.6,1.69-2.79,3.93.92-1.87.41-1.27-.13-.69-.28.28-.5.59-.57.52-.06-.07.03-.5.62-1.61-3.48,4.58-3.38,9.73-1.64,13,.85,1.67,2.07,2.86,3.22,3.76,1.16.91,2.28,1.6,3.34,2.37,1.27.23,1.34.06.83-.24-.52-.31-1.65-.81-2.81-1.52-1.16-.7-2.29-1.68-2.88-2.43-.58-.76-.81-1.1-.31-.52-.32-.55-.24-.64.03-.4.28.22.75.78,1.45,1.33,1.36,1.17,3.57,2.16,5.07,2.75,1.54.59,2.77,1.26,4.6,2.12.92.43,1.98.9,3.32,1.4,1.33.5,2.96.93,4.96,1.41-.79-.2-.87-.13-1.66-.33,1.47.47,2.95.78,4.52,1.03,1.58.24,3.23.51,5.05,1.08,2.18-.21,4.83.79,5.55.12l-3.73-.47c-1.24-.15-2.47-.4-3.71-.6,1.06.15,2.1.27,3.18.35,1.09.06,2.21.12,3.41.18,1.2.07,2.48.22,3.89.35,1.42.13,2.96.32,4.69.62-.56.1-2.65.08-4.09.04,2.01.44,3.94.3,6.03.71-.34.41-2.61.18-5.38-.1-.69-.07-1.42-.15-2.15-.22-.73-.1-1.46-.2-2.18-.29-1.44-.18-2.83-.31-3.99-.34,1.07.33,3.23.52,4.83.68,1.59.18,2.63.24,1.43.55,1.72-.36,3.72-.11,6.01.21,2.29.27,4.88.52,7.67.28l-.39.46c.89-.04,2.72-.22,4.34-.17l-2.96.54c2.27-.22,4.44,0,6.59.13,2.15.1,4.3.28,6.46.05-9.08.21-2.05-.52-5.88-.8,2.78-.21,4.57-.2,5.89-.2,1.32,0,2.17.13,3.06.26.9.13,1.84.28,3.34.31,1.5-.01,3.55-.13,6.67-.51-1.69.24-6.37.34-3.75-.13,1.19-.06,2.58-.12,3.85-.18,1.27-.09,2.43-.14,3.17-.12,8.22-1.25-1.33-.31,2.12-1.08,2.88.16,3.97-.94,7.5-1.75l.12.47c4.64-.87,5.2-1.27,5.63-1.61.22-.17.41-.34,1.07-.56.65-.24,1.76-.56,3.83-1.02l-3.29,1.58,4.23-1.32-.74.77c1.14-.4,2.09-.73,2.93-1.03.84-.31,1.58-.57,2.33-.81.99-.3,1.98-.6,3.1-.94,1.31-.41,2.76-.9,4.57-1.52-1.04.2-1.03-.04-.19-.54.86-.5,2.5-1.25,5.15-2.22.42-.12.74-.21.98-.28.09-.07.18-.11.25-.13-.37-.38,2.79.87-4.11-2.02,1.73.51,3.9,1.16,6,2.09-.11.15-.73.31-1.26.48-.55.17-1.16.34-1.83.51-.02.17-1.29.79-1.43,1.01.91-.27,1.88-.58,2.87-.92.49-.17.99-.34,1.5-.51.47-.17,1.1-.36,1.34-.53-3.84-1.66-8.14-3.37-10.32-4.34,1.28.59,2.81,1.28,3.49,1.64-2.46-.93-4.74-1.82-6.84-2.7l-2.41-1.04c-.62-.28-1.26-.55-1.86-.86-1.01-.81-.06-.41.87-.03-1.43-.79-2.54-1.16-4.49-2.54.36.03.58-.07,1.05.06.47.12,1.19.46,2.67,1.26-2.24-1.17-4.33-2.53-6.19-4.13-.13-.22-.69-.98-1.1-1.61-.4-.64-.64-1.15-.31-.83-.29-.39-.6-.8-.89-1.24-.16-.22-.31-.44-.48-.66-.14-.24-.29-.48-.43-.73-.31-.49-.63-.99-.95-1.51-.26-.55-.53-1.12-.81-1.69-1-2.34-1.68-5.11-1.45-7.81-.11-.28-.11-.84-.09-2,.03-.32.06-.63.09-.95.04-.31.12-.62.18-.93.13-.62.25-1.23.38-1.84.18-.6.36-1.21.53-1.81l.26-.91.33-.91c.21-.61.43-1.23.65-1.85.25-.62.5-1.25.76-1.9.23-.66.52-1.32.82-2,.3-.68.54-1.4.88-2.12.8-.93,1.53-1.88,2.39-2.74,1.23-2.12.41-1.23-.21-.67-.31.28-.57.47-.5.14.1-.31.44-1.21,1.61-2.94.78-1.26,1.33-1.94,1.69-2.32.35-.38.52-.45.62-.42.2.07.16.54.86-.21,1.49-2.47,4.5-6.82,8.84-10.41-1.2,1.42-2.28,2.39-3.42,3.67ZM183.14,79.78c.52.43,1.3,1.08,1.97,1.81.68.72,1.25,1.5,1.4,2.02-1.34-1.01-1.85-2.1-3.37-3.83ZM260.07,69.21c-.91.19-2.34.16-3.95.03,1.16-.08,2.48-.1,3.95-.03ZM338.85,38.65s-.07.06-.1.08c-2.51,1.17-1.62.76.1-.08ZM343.98,36.07c.47-.34.41-.37.16-.32-.29.3-1.42.93-2.72,1.6.42-.09,1.11-.37,2.56-1.29ZM73.42,202.68l1.04.38c-2.46-.45-1.75-.4-1.04-.38Z"/>
  <path class="cls-1" d="M249.08,70.24c-.35-.07-.45-.16-.54-.24-.48.1-.49.19.54.24Z"/>
  <path class="cls-1" d="M145.47,169.36v.18c.03.1.06.15.09.18l-.09-.35Z"/>
  <path class="cls-1" d="M354.78,52.87c1.2.17,1.85.36,2.28.52.08-.09-.45-.33-2.28-.52Z"/>
  <path class="cls-1" d="M370.38,20.93l-3.19,1.83c1.56-.86,2.17-1.06,3-1.41-.12-.06-.82.12.19-.42Z"/>
  <path class="cls-1" d="M400.05,8.84c.45-.3,1-.52,1.46-.82l-.19-.15c-2.12,1.1-3.39,1.96-1.26.97Z"/>
  <path class="cls-1" d="M374.13,20.75c.45.22,2.42-.97,4.67-2.24-.14.07-.27.14-.4.21.41-.85-1.94.58-4.26,2.03Z"/>
  <path class="cls-1" d="M379.32,18.23c.69-.39,1.41-.77,2.1-1.12.16-.34-.88.41-2.1,1.12Z"/>
  <path class="cls-1" d="M350.24,32.35c1.12-.49.43-.82,1.11-1,.95-1.11-6.86,4.44-1.11,1Z"/>
  <polygon class="cls-1" points="376.6 20.97 375.55 20.95 374.46 21.98 376.6 20.97"/>
  <path class="cls-1" d="M358.49,30.19l3.69-1.82c-.09-.04.34-.34.89-.67-2.24,1.18-4.73,2.41-4.58,2.5Z"/>
  <path class="cls-1" d="M363.07,27.69c1.17-.61,2.27-1.21,2.88-1.63-.63.34-1.98,1.08-2.88,1.63Z"/>
  <polygon class="cls-1" points="371.7 23.72 370.58 24.2 368 25.53 371.7 23.72"/>
  <path class="cls-1" d="M319.73,51.43l-3.84,2.33c-.31.37.8-.14,2.22-1.02.88-.63,2.29-1.51,1.61-1.32Z"/>
  <path class="cls-1" d="M332.24,46c-1.11.5-1.24.44-1.91.63l.18.61,1.73-1.24Z"/>
  <path class="cls-1" d="M320.9,52.52c-.3.37-5.42,3.63-.49.8.31-.38,4.16-2.7.49-.8Z"/>
  <path class="cls-1" d="M361.62,55.63l-1.2-.23c-.09.32-.2.65-.33.97.42-.26.94-.52,1.52-.75Z"/>
  <path class="cls-1" d="M323.61,90.66c4.93-2.22.87-1.11,5.33-3.1,1-.8-3.63,1.64-2.58.85-1.53.93-2.71,1.54-3.15,1.88l-1.1-4.13c.39-.11.41-.23-.03-.41l1.31,4.91s.13.02.23.01Z"/>
  <path class="cls-1" d="M326.35,88.4c.44-.28.91-.58,1.39-.91-.8.49-1.17.74-1.39.91Z"/>
  <path class="cls-1" d="M78.66,217.36c.49.22.99.41,1.47.64l1.42.73c-.58-.36-1.16-.77-1.77-1.11l-1.12-.25Z"/>
  <path class="cls-1" d="M84.62,219.17c.13.3.22.64.33.95l1.95.52c-.64-.36-1.86-1.08-2.28-1.47Z"/>
  <path class="cls-1" d="M180.83,76.12l-.33-.04c-.05,0-.09,0-.11.01-.11.03-.01.11.16.25.03-.12.12-.2.27-.23h.01Z"/>
  <polygon class="cls-1" points="180.89 116.44 181.39 115.77 180 116.68 180.89 116.44"/>
  <path class="cls-1" d="M155.66,145.93c.92-1.18,1.87-2.68,2.89-3.79-2.02,2.56-3.71,3.7-2.89,3.79Z"/>
</svg>