<?xml version="1.0" encoding="UTF-8"?>
<svg id="Layer_1" data-name="Layer 1" xmlns="http://www.w3.org/2000/svg" viewBox="0 0 240.47 86.11">
  <defs>
    <style>
      .cls-1 {
        fill: #fff;
        stroke: #231f20;
        stroke-miterlimit: 10;
      }
    </style>
  </defs>
  <path class="cls-1" d="M230.57,35.04c.71.17.54-.28.67-.34-1.26-.15-.65.45-.67.34Z"/>
  <path class="cls-1" d="M223.12,40.8l-.07.24c.37-.37.71-.76,1.04-1.15-.32.31-.64.62-.98.91Z"/>
  <path class="cls-1" d="M230.16,34.5c-.56.14-1.06.81-1.63,1.58-.58.75-1.24,1.61-1.96,2.06l-.31.06c-.06.31-.14.62-.22.93,1.61-1.36,3.13-3.58,4.14-4.62Z"/>
  <path class="cls-1" d="M234.2,30.87c-.4.17.32-1.14-.65,1.08.09-.09.12-.11.17-.17.1-.19.24-.46.48-.91Z"/>
  <path class="cls-1" d="M233.72,31.78c-.5.94.54-.5,0,0h0Z"/>
  <path class="cls-1" d="M230.01,25.45l.87-.73,6.14-5.17-1.76,8.92-.03.14s.06-.06.1-.11l3.98-5.41-8.47,1.56c-.38.07-1.13.43-.86.16-1.05.73-.74.75.02.64Z"/>
  <path class="cls-1" d="M229.24,26.47l.51-.4c-.13,0-.29.05-.51.4Z"/>
  <path class="cls-1" d="M230.83,25.22l-1.09.85c.21.01.34.21.51-.37,0,.24.14-.07.58-.48Z"/>
  <path class="cls-1" d="M234.58,28.79c-.42.67-.92,1.52-.6.17-.45,1.21-.58,1.77-.42,1.74.15-.03.59-.66,1.03-1.91Z"/>
  <path class="cls-1" d="M229.86,33.68c-.25.21-.49.43-.75.63l-.34.79c.18-.38,1.31-1.33,1.08-1.43Z"/>
  <path class="cls-1" d="M223.07,28.83c0,.17.56.16.73.28l.72-.59c-.46.13-1.29.47-1.45.31Z"/>
  <path class="cls-1" d="M223.8,29.11l-1.08.88c1.09-.56,1.23-.77,1.08-.88Z"/>
  <polygon class="cls-1" points="229.42 27.27 231.13 25.71 229.05 27.48 229.42 27.27"/>
  <polygon class="cls-1" points="218.47 31.31 218.98 30.63 218.02 31.76 218.47 31.31"/>
  <path class="cls-1" d="M215.45,33.01c.37-.53-.93-.06-.48-.51-.8.49-1.39,1.09-1.92,1.63.62-.47,1.35-.83,2.4-1.12Z"/>
  <path class="cls-1" d="M212.13,34.99c.31-.24.6-.54.92-.86-.33.25-.64.53-.92.86Z"/>
  <path class="cls-1" d="M220.64,31.04c-.14-.03-.43-.14-1.15.13l.68.12c.15-.08.31-.16.48-.25Z"/>
  <path class="cls-1" d="M220.19,31.3h-.02c-.52.27-.88.45-1.03.53.13-.07.45-.23,1.06-.53Z"/>
  <path class="cls-1" d="M220.76,30.98s-.08.04-.12.06c.07.01.1,0,.12-.06Z"/>
  <path class="cls-1" d="M226.09,28.66c-.59.6-1.94,1.63-.34,1.17.37-.53-.55-.27.34-1.17Z"/>
  <path class="cls-1" d="M221.6,31.13l1.32-.61c-.08-.09-.39-.1-.1-.4l-1.23,1.01Z"/>
  <polygon class="cls-1" points="221.04 31.59 221.6 31.13 221.11 31.36 221.04 31.59"/>
  <path class="cls-1" d="M214.51,34.17c-.46.46-1.06.8-1.73,1.19.77-.32,1.55-.69,2.27-1.07.04-.17.24-.55-.54-.12Z"/>
  <path class="cls-1" d="M217.29,32.81s-.08.06-.11.09c.09,0,.16-.03.11-.09Z"/>
  <polygon class="cls-1" points="206.04 38.93 206.18 38.94 206.17 38.86 206.04 38.93"/>
  <path class="cls-1" d="M215.21,34.29c.59-.22.87-.49,1.12-.78-.39.26-.81.52-1.28.77-.02.08,0,.12.16,0Z"/>
  <path class="cls-1" d="M210.35,36.17c.33-.07.69-.18,1.07-.3-.34.03-1.02.15-1.07.3Z"/>
  <path class="cls-1" d="M216.94,32.9s.05-.04.07-.06c-.22.02-.18.04-.07.06Z"/>
  <path class="cls-1" d="M216.94,32.9c-.25.21-.43.42-.61.62.32-.21.61-.42.85-.62-.08,0-.17,0-.24,0Z"/>
  <path class="cls-1" d="M205.25,42.43c-.08-.4,1.21-1.48,2.66-1.77,1.1-.92-.32-1.64-1.73-1.72.04.17.12.32-1.05,1.19.55-.04,3.05-1.04,2.15-.16-1.59,1.07-1.44.61-2.36.84.93.08-1.82,1.75-1.12,2.2l1.37-.99c.08.09-.38.52.08.4Z"/>
  <path class="cls-1" d="M208.62,37.7l.5-.32c-.63.25-1.13.34-2.06.48-.78.63-.89.85-.89,1l2.6-1.31-.15.15Z"/>
  <path class="cls-1" d="M211.46,36.14c-.21.6-1.37,1.42-.39,1.43,1.52-.84.91-.89,1.73-1.54-2.42,1.42.6-.59-1.3.15.45-.32.88-.58,1.28-.81-.47.19-.93.37-1.37.51.03,0,.05,0,.07,0h.01s0,0,0,0c.13,0,.18,0,.05.04,0,0-.03.03-.05.04.01.06,0,.13-.04.2-.76.3-.17-.04.04-.2,0-.02,0-.05,0-.07h-.01s-2.37,1.52-2.37,1.52c.55-.22,1.2-.58,2.34-1.24Z"/>
  <path class="cls-1" d="M224.88,31.36c-.09,0-.11-.02-.13-.04-.13.13-.18.2.13.04Z"/>
  <path class="cls-1" d="M223.74,31.68c.15-.15.22-.38.82-.66.57-.16.1.18.19.29.3-.29,1.08-.94-.12-.52l-.15.15c-1.06.41-2.6.63-2.45.49.47.18.86.29,1.71.26Z"/>
  <path class="cls-1" d="M217.58,34.06l-1.96,1.29,1.23-.23-.16-.17c1.21-.55.83-.66.89-.89Z"/>
  <polygon class="cls-1" points="205.7 38.86 205.76 38.32 204.87 39.51 205.7 38.86"/>
  <polygon class="cls-1" points="203.04 40.31 202.96 39.91 202.36 40.49 203.04 40.31"/>
  <path class="cls-1" d="M39.52,80.56l-.71-.04c.33.04.55.05.71.04Z"/>
  <path class="cls-1" d="M44.48,81.53l.16-.17c-.25.07-.36.13-.16.17Z"/>
  <path class="cls-1" d="M134.9,69.36c-1.06-.07-2.28-.3-2.04.09l.41.33c.64-.27,1.16-.38,1.62-.42Z"/>
  <path class="cls-1" d="M85.51,81.29c.1.04.2.08.3.12.23-.16.45-.31.65-.45-.29.1-.61.21-.95.33Z"/>
  <path class="cls-1" d="M84.92,83.12l-1.35-.21c.3.08.74.15,1.35.21Z"/>
  <path class="cls-1" d="M12.99,72.77l-.47.05-.7-.08c.24.11.44.2.6.27.11.04.19.06.25.07.13.03.19.01.22-.02.06-.06,0-.21.09-.29Z"/>
  <path class="cls-1" d="M175.26,54.05c-.85.2-1.5.41-2.06.64,1.04-.2,1.96-.2,2.06-.64Z"/>
  <path class="cls-1" d="M42.34,76.47c-.42-.01-.61.04-.62.13.43.02.68,0,.62-.13Z"/>
  <path class="cls-1" d="M170.94,55.7c.16-.02.3-.06.46-.09.54-.32,1.1-.64,1.81-.93-.77.14-1.61.41-2.26,1.01Z"/>
  <path class="cls-1" d="M67.94,17.12c-.05.05-.1.11-.14.16.09-.05.12-.1.14-.16Z"/>
  <path class="cls-1" d="M84.07,22.08c-.25-.07-.66-.15-1.05-.26.18.09.5.14,1.05.26Z"/>
  <path class="cls-1" d="M192.1,45.67c.56-.31.07-.09,0,0h0Z"/>
  <path class="cls-1" d="M195.66,45.8c-.1.11-.17.21-.13.3,0-.12.05-.22.13-.3Z"/>
  <path class="cls-1" d="M166.12,60.71s-.03.01-.05.02c.21,0,.17,0,.05-.02Z"/>
  <path class="cls-1" d="M193.05,45.41c-.24.06-.51.15-.79.25.13-.03.37-.1.79-.25Z"/>
  <path class="cls-1" d="M192.84,45.28c.21-.08.37-.15.52-.21.04-.1-.04-.11-.52.21Z"/>
  <path class="cls-1" d="M191.31,46.09c.33-.16.64-.3.95-.42-.13.03-.18.03-.16,0-.17.09-.4.21-.79.42Z"/>
  <path class="cls-1" d="M34.25,40.5s.08-.04.13-.06c.36-.57.17-.36-.13.06Z"/>
  <path class="cls-1" d="M119.89,78.06s.04-.03.07-.04c-.03,0-.07,0-.1,0l.03.03Z"/>
  <path class="cls-1" d="M117.68,78.91c.85-.75,1.41-.82,2.17-.88l-1.03-1.04-1.14,1.92Z"/>
  <path class="cls-1" d="M27.74,77.73l1.49.82c-2.11.08-3.46-.52-2.1.42.61-1.24,6.29,1.59,6.85.34.33.19.66.35.99.52-.3-.08-.37-.01-.67-.09,1.92,1.09,1.77-.61,4.38.16.9.31,1.51.64.85.66l2.13.12c.6.13.41.34-.19.2l3.2.44-.03.04c.49-.13,1.57-.28,2.09-.34.77.33-.43.07-.25.28l1.81-.03c.66.47-.84.56-2.05.3.71.81,1.1.79,1.73.74.63-.04,1.5-.15,3.24.45l-1.7-.03c.98.89,2.33.78,4.18,1.49-.43-.3-3.66-1.66-1.69-1.76.53.17,1.24.3,2.31.16-.04.48.98.49,2.26.61l-.15.63c1.4-.08,1.32-.41,2.16-.64,1.53.18,1.81.7,2.14,1.14,2.46.29-1.64-.92,1.28-.82,2.03.43,3.49.17,5.94-.13,1.42.27-.26.38.25.58l1.28-.47c.31.02.21.18.15.25,1.07-.16.1-.64,1.78-.76.45-.7,3.44,1,5.51.18.52.18-.24.39-.08.64,2.84-.54,2.44-.42,4.74-1.24l2.01.32c-1.48-.41.35-1.07,1.94-1.62-.53-.21-.98-.39-1.28-.47.85-.16,1.71-.3,2.56-.49.32.08.08.32-.33.62.17-.07.34-.13.46-.19.94.15.49.56-.15.98-.32-.09-.65-.22-.96-.34-.61.42-1.19.88-1.03,1.25.16-.08.49-.16.84-.22-.16.11-.26.21-.18.27.09.06.36-.09.77-.28l.64.67.12-.3,3.44.14c1.19-.47,2.28-1.01,3.55-1.51,1.27-.55,2.71-1.07,4.6-1.46-.88.64-.09.87-.07,1.49-1.13-.53-2.94.68-4.96.75,1.05-.02.85.28.6.42l3.49-1.04c-.02.51.8.28,1.76.37-.84-.91,2.57-.97,3.95-1.55.14.31-.15.72-1.92.91,2.06.45,2.33-1.57,4.32-1.24-.43.08-.67.06-.81.26.95-.46,3.43-.62,2.91-.24l-.43.08c2.87-.33,8.62-1.68,8.86-2.56.05.1-.15,1.08-.29,1.28,1.48-1.29,2.93-2.63,4.36-3.94-.27.81,1.83,2.11-.41,3.06.69-.06,1.55-.13,2.9-.71-.48,0-1.39-.76-.78-.97,1.9.39,1.29.16,3.55.27-.72.03-.25-1.28.82-1.53-.12.21.38,1.07.02,1.29l2.37-1.8c-.61.37.13.95.82,1.1-.33-.13,2.31-.6,2.98-.94l-1.19.08c3.04-.73,2.5-2.4,5.46-3.22-.29.33-.46,1.63,1.09,1.32.52-.76,2.19-3.63,4.61-4.88l.6.15c.62-.34,1.24-.66,1.84-1.02-.93,1.25-3.82,4.1-5.51,5.41,1.19-.12.43.27,2.08-.3.68.1-.76.74-1.25.92l3.94-1.08c-.19-.29.49-.69,1.19-1.08.69-.4,1.38-.8,1.21-1.04-1.3.73-2.64,1.38-3.96,2.07-.38-.6,1.83-2.57,4.56-3.44.78,0-.12,1.31.01,1.5.28-.34,2.43-1.33,2.73-1.27l-1.03.75c1.6-.31,2.17-1.7,4.19-1.77.63-.2,2.16.1,2.13-.31-1.29-.33-2.31-2.48-1.85-3.27.23-.03,3.49-.55,4.33-.47,1.24.17-1.01,1.92.05,2.07-.03-.19.45-.61.66-.77.71-.11-.06.64,1.32,0-.02-.73,2.87-1.11.45-.81,1.3-.74,1.51-.46,3.11-1.15-.68-.2.88-1.97,2.16-2.71-.01.19.38.27.57.3,2.8-1.14,4.42-1.49,7.01-2.61.3.04,1.63-.33,1.22.17.32-.28.57-.64,1.35-1.01,1.78-.16-1.73.88-.27,1-.06-.41,1.83-1.43,2.86-2.16-.6-.4-2.66,1.07-3.69,1.81-.35-.77,1.26-2.46,3.77-4.02,2.03-1.17,1.15.07,1.46-.21,4.04-1.74,2.76-2.91,6.3-3.93,1.53-.15.52.94.98,1.14-1.62,1.03-2.79.95-3.95,1.52l1.55-.45c-.47.42-1.57,1.08-2.26,1.24.65-.04,2.35-.8,4.28-1.71,1.92-.92,4.09-1.96,5.71-2.5.46-.42,1.31-1.06.77-1.03l-.93.54c-1.08.05,1.54-1.43.24-1.01,1.15-.92,2.37-2.07,4.29-2.76l.62.38c-.12-.14-1.35.27-1.77.69.63-.62,3.15-.65,3.61-1.79l-1.46.26c1.15-.92,2.43-2.33,4.12-2.97-1-.16-.34.25-1.79.21,1.39.28-4.09,2.06-2.09,2.08-1.54-.15-2.18.71-4.02.85.14.16.71.07-.67.66-.03.08-.14.22-.21.31-.04.01-.06.02-.1.03.03,0,.05-.01.08-.02-.04.06-.05.06.03,0,.36-.08.67-.12.82-.07-.46.75-2.6,1.81-3.23,2.38-.84.31.23-.37-.3-.35l-.93.85c-.31-.35-2.46.37-.68-.79l-1.71.81c-1.11.26-2.52.85-3.3,1.41-.85.29-1.82,1.41-1.27.76l-2.56,1.51-.07-.09c-2.66,1.2-5.17,3.17-8.54,3.81-.86.49-1.74,1.02-3.3,1.55l-.45-.23c-1.11.62-3.63,1.14-3.98,1.71-1.66-.47-5.73,2.13-7.88,2.72l.11.5c-1.43.52-2.75,1.17-4.45,2.04l.26.38c-1.4.92-4.07,1.12-6.48,2.03.11-.22.74-.4,1.21-.46-3.22.11-5.94,2.76-8.82,2.96-.61.38-1.12.46-1.62.49.06-.02.11-.04.16-.07-.07.02-.17.05-.28.08-.32.01-.65.02-1,.05.31.02.6.03.85,0-.51.16-1.28.45-2.01.79l-.46-.36c-.06.02-.11.04-.17.07-.8.05-.54.4-.04.63-.36.19-.69.39-.93.58-.83-.57-1.94.87-3.01.28-.41.53-3.8,1.33-4,2.27-.05-.1-.3-.09.12-.21-.89.13-1.77.29-2.49.7l-.52-.51-1.7,1.24c-1.24-.09-1.76-.19-.73-.92-2.6,1.34-2.17.81-4.37,2.03l.03-.41c-.84.18-2.09.97-2.66.75-2.02-.32-9.4,1.7-14.41,1.59,1.1,1.04-2.34-.23-2.42.69-.32-.24-1.02-.31-.25-.64-2.47.61-3.8-.04-5.46.89-.31-.25.5-.45.23-.59-.2.08-.77.31-1.05.17-.27-.14.35-.26.73-.42-2.54.27-2.74,1.14-2.87,1.96-1.33-.24-1.98-.21-2.89.38-.47-.24-1.24-.47.35-.65-.91,0-5.51-.11-5.58.54-.29-.14-1.26-.03-1.5.05-2.02-.02-2.2-.07-4.19,0l.55.1c-.78.76-1.66.22-3.26.27l.05-.08c-3.66-.67-1.6.22-5.2-.53l.18.49c-.19.5-.99.35-2,.06-1.01-.31-2.23-.71-3.29-.59l.74.33c-1.18.27-3.09-1.64-4.21-1.85-.24-.11.41-.11.76-.15-2.92-.88-.45.6-2.69.5-.37-.39.62-.79-.86-1.04-.35-.18-1.46-.04-2.74.04-.64.04-1.31.06-1.95.01-.63-.07-1.23-.21-1.71-.46.4.33.81.67-.25.69-1.6-.18-4.08-1.68-5.64-1.14-.18-.11-.25-.2-.24-.26-1.23-.05-3.94-.51-4.76-.23-.18-.46-.75-.75-1.48-.94-.74-.2-1.63-.36-2.51-.48-1.74-.26-3.37-.46-3.14-1.19-.6-.16-1.21-.3-1.81-.47l-1.79-.56.14-.12c-2.23-.85-3.15-.78-4.08-.7-.49-.27-.06-.28.01-.34-.81-.34-1.43-.62-1.94-.87-.52-.23-.95-.4-1.38-.53-.85-.26-1.69-.37-3.2-.56l-.09-.57c-.21,0-.59-.17-1.1-.43-.3-.14-.39-.24-.61-.37-.18-.12-.37-.26-.58-.4-.82-.56-1.54-1.03-2.99-1.38.12,0,.32-.02.59.03l-.28-.08-.13-.04-.06-.02s.01-.02.02-.03c.06-.08.14-.16.23-.25.18-.17.42-.36.66-.53.49-.34.99-.61,1.35-.81.02,0,.13-.09.24-.17l.29-.23c.19-.15.37-.3.55-.45.35-.29.66-.59.93-.87.52-.58.83-1.15.79-1.72l1.62-2.06c-2.57,2.13-.16-.91-1.38-.22.9-.96,2.88-1.87,1.75-.72l-.25.1c.19,1.1,3.3-2.53,3.67-2,4.85-4.44,9.95-8.34,14.55-12.43l-1.02-.07,1.62-1.41c.53-.25.94-.08-.21.92.88-.23,1.67-1.98,1.6-2.13,2.42-1.79-.3,1.42.4.81l.89-.88-.27.13c.55-.9.41-1.2,1.8-2.4.96-.67.75-.07,1.11-.35.03.04.16-.05.54-.46l2.05-1.77-1.19.3c.7-1.01,1.91-1.68.54-1.33,2.04-.48,7.73-6.49,8.78-7.01.96-1.44,2.2-2.54,3.76-3.88-.46.25-1.12-.02.25-1.15.42,1.43,2.8-1.74,4.5-1.98-1.38.38,3.63-3.49,1.53-2.82,1.17-.91.4.31,1.45-.2,1.42-1.72,3.42-3.23,5.48-4.87l-3.06-2.37c-.6,1.44-1.16,2.95-1.64,4.52.07.11.49-.49.3.46-.44.63-.84,1.29-1.2,1.96-.22.86.07.93-.64,2.33.11-.19.29-.47.09.07-.33.78-.64,1.57-.94,2.37l-.23.6-.06.15s-.16.13-.27.22l-.39.29-1.5,1.11-1.22.9c-.33.25-.58.42-1.06.81l-.64.52-.39.32-.6.52-3.25,2.84-2.72,2.39-1.36,1.2-.87.87-1.74,1.74-.87.87-.11.11.26-.21.53-.43,1.06-.86,7.78-6.27,2.22-1.76,1.11-.88.51-.4.28-.21,1.14-.83.57-.41.28-.21.19-.12c.46-.29.99-.64,1.39-.87l1.01-.52.79-.31.64-.17.54-.07h.45s0,.01,0,.01c.02-.03-.14.23-.07.12h0s0,0,0,0h.02s.04-.02.04-.02l.07-.02.15-.04,1.17-.36,1.82-.37c.79-.42,1.58-.72,2.36-1.08.22-.11.34-.13.47-.17l.4-.12.81-.24c.54-.13,1.08-.22,1.62-.33.55-.06,1.1-.12,1.65-.16,2.2-.1,4.43.28,6.39,1.19-.96-.55-.26-.47.53-.26-.5-.21.12-.42.08-.68.53.25,1.04.49,1.53.8.5.28.98.57,1.43.91.2-.09.51-.05.87.06.34.14.73.34,1.12.54.75.42,1.43.9,1.77.73l-.96-.49c.8.07.62-.53.27-1.29-.37-.71-.95-1.55-.63-1.92-.99-.02-1.91-.79-3.12-1.46-1.18-.69-2.66-1.24-4.21-.87-.63-.27.6-.23.28-.5-.82.33-1.71.26-3.4.06l.19-.1c-2.02.02-3.55.14-5.06.35-.38.05-.76.11-1.14.16-.38.08-.76.16-1.15.24-.28.06-.57.12-.87.18-.19.04-.39.07-.57.13-.18.05-.39.1-.61.18l-.15.06c-.05.19-.1.37-.13.55-.24.11-.35.12-.42.1-.06-.02-.09-.04-.12-.25-.45.26-.41.48-.2.62.22-.1.57-.32.7-.32.09,0,.1.12-.18.48,0,0,0,0,0-.01-.04-.09-.13-.13-.25-.12-.06,0-.12.01-.19.03-.07.01-.15.09-.23-.05-.31-.37-.85-.45-1.32-.32-.23.06-.45.18-.6.31-.07.07-.13.14-.16.21-.02.03-.03.07-.04.1v.04s.06-.09.06-.09c.38-.56.83-1.1,1.41-1.62.21-.4-.07-.16-.36.1-.29.26-.59.53-.33.04l.66-.62c-.19.08-.37.16-.55.22.46-.73,1.2-1.36,1.6-1.58-.11.15-.07.29-.1.39.46-.5.62-.87.74-1.23.12-.35.19-.68.32-.81l-.64.83c.32-.85.87-1.91,1.41-2.94l5.58-10.73-8.95,8.11c-2.19,1.98-4.41,4-6.1,6l.4-.06c-2.2,2.54-2.15,1.61-4.74,4.21l.06-.13c-.4.66-1.05,1.4-1.81,2.05.51-.81-1.63.79-.93-.24-2.39,2.75-1.1,1.46-2.31,3.68l-.66.09c-.38.79-.31.97-1.61,2.27.9-1.24-1.25.36-.28-1.08-3.39,1.97-3.69,4.43-5.79,4.73-.62,1.94,2.85-1.8,2.26-.98.84-.31-.57,1.54-1.53,2.28-.93.8-2.43.42-4.71,2.5.23-.2.19-.27.43-.48-1.03.58-1.44,1.78-2.78,2.41-.17.99-1.39,1.21-1.03,1.95l1.98-2.03c-1.05,1.23-1.55,2.92-3.81,4.36.05-.26.49-.94.81-1.39-.73.34-1,1.11-1.76,1.47-.36-.74,2.44-2.43,3.31-4.03-.84.31-2.03,2.61-1.96,1.39-.19,1.64-2.35,1.93-3.34,3.95l-.22-.44c-.2.28-.55.9-1.01,1.3l.41-1.2c-.9,1.52-2.73,1.84-3.74,3.14,2.51-2.29.95-.09,2.25-.79-2.69,3.28-2.62.69-5.95,4.01.43-.48,1.96-1.39,1.37-.56-.73.53-1.73,1.18-2.3,1.36-2.24,2.16.68.04-.11,1.15-1.17.28-.98,1.2-1.86,2.25l-.33-.35c-2.84,2.14-.02,1.38-2.64,3.23l.55-1.4-1.12,1.24-.11-.64c-1.07,1.51-1.56,1.81-2.98,2.89.53-.02.41.81-.74,1.87-.99.5.14-.74-1.47.8.17-.56.33-1.21,1.34-1.53-.03-.18.16-.56.14-.74-.54.26-1.09.74-1.58,1.21-.51.49-.82.86-1.46,1.44.2-.17.42-.35.62-.51.13-.09.25-.17.34-.21l-.24.33-.43.5-.82.96-1.48,1.79c-.79.47-.54.04-.22-.44-.73.73-.96,1.24-1.98,2.21-.31-.25-1.04-.14.53-1.8l-1.7,1.82-.8.87-.39.42s-.1.08-.06.1l.16.06.32.12c-.04.17,1.51,1.22.71,1.01,1.12.65,2.99,1.31,4.78,1.95.9.32,1.79.64,2.63.98.42.17.84.35,1.24.54l.57.28c.13.06.26.13.39.2.14-.03.39,0,.87.13,1.97.87,3.58,2.07,6.17,2.46l1.15,1.13c1.96.49-1.57-1.46,1.68-.65,2.31.54.65.85,1.37,1.3.61.02,1.46.02,2.39.17.93.13,1.96.35,2.92.92-.73-.06-1.24-.31-1.91-.44ZM51.94,82.43c-.49.04-1.47.24-1.78-.09.61-.48.99-.17,1.78.09ZM89.16,81.94c-.34.19-.89.16-1.51.03.44-.08.94-.11,1.51-.03ZM185.95,49.11s-.02.03-.03.04c-1.02.29-.66.19.03-.04ZM187.99,48.35c.17-.16.12-.21.01-.23-.08.18-.52.4-1.03.61.19.05.48,0,1.02-.38ZM41.54,38.3l-.4.19c.62-.74.5-.47.4-.19Z"/>
  <path class="cls-1" d="M85,82.91c-.14-.07-.18-.16-.22-.25-.18.09-.18.18.22.25Z"/>
  <path class="cls-1" d="M13.16,72.75l-.07-.03s-.08.03-.1.05l.17-.02Z"/>
  <path class="cls-1" d="M158.76,65.75c-.45.1-.71.1-.9.08.02.12.25.14.9-.08Z"/>
  <path class="cls-1" d="M197.93,42.49l-1.19.74c.59-.32.85-.34,1.19-.42-.08-.09-.39-.11,0-.31Z"/>
  <path class="cls-1" d="M210.04,39.55c.15-.15.38-.21.53-.35l-.15-.17c-.76.42-1.22.86-.38.53Z"/>
  <path class="cls-1" d="M199.81,43.32c.28.31,1-.21,1.83-.73-.05.03-.1.06-.15.08,0-.64-.84,0-1.68.65Z"/>
  <path class="cls-1" d="M201.83,42.48c.26-.16.53-.31.8-.42,0-.25-.35.13-.8.42Z"/>
  <path class="cls-1" d="M190.35,46.9c.46-.11.03-.59.34-.56.24-.69-2.49,1.91-.34.56Z"/>
  <polygon class="cls-1" points="201.12 44.15 200.58 43.87 200.28 44.48 201.12 44.15"/>
  <path class="cls-1" d="M194.06,47.31l1.46-.58c-.06-.06.1-.2.3-.34-.87.42-1.85.8-1.76.92Z"/>
  <path class="cls-1" d="M195.82,46.39c.45-.22.87-.44,1.09-.64-.24.13-.75.4-1.09.64Z"/>
  <polygon class="cls-1" points="199.29 45.26 198.83 45.38 197.83 45.84 199.29 45.26"/>
  <path class="cls-1" d="M178.89,54.5l-1.49.83c-.09.23.38.13.93-.19.32-.28.87-.6.56-.64Z"/>
  <path class="cls-1" d="M184.14,53.55c-.46.1-.54.01-.84-.02l.22.58.63-.56Z"/>
  <path class="cls-1" d="M179.69,55.81c-.08.23-2.06,1.47-.1.54.09-.22,1.58-1.08.1-.54Z"/>
  <polygon class="cls-1" points="155.67 65.11 156.07 64.95 155.65 64.02 155.67 65.11"/>
  <path class="cls-1" d="M134.91,74.78c2.03-.35.28-.74,2.14-.98.39-.37-1.52.19-1.11-.15-1.1.59-1.77.64-1.03,1.12Z"/>
  <path class="cls-1" d="M135.94,73.65c.18-.09.36-.2.56-.33-.32.16-.47.26-.56.33Z"/>
  <path class="cls-1" d="M87.76,24.29c.3.25.56.53.84.79l-.43-.69c-.14-.04-.27-.08-.41-.1Z"/>
  <path class="cls-1" d="M90.03,24.92l-.18.68.92-.02c-.23-.14-.67-.42-.74-.66Z"/>
  <path class="cls-1" d="M55.44,84.17l.12-.14c-.19-.19-.49-.24-1.11-.34l.99.49Z"/>
  <polygon class="cls-1" points="37.76 80.82 38.06 80.9 37.62 80.2 37.76 80.82"/>
  <path class="cls-1" d="M22.96,77.5c.58.22,1.31.33,1.9.55-1.32-.33-1.82-1.3-1.9-.55Z"/>
</svg>