<?xml version="1.0" encoding="UTF-8"?>
<svg id="Layer_1" data-name="Layer 1" xmlns="http://www.w3.org/2000/svg" viewBox="0 0 362.08 189.04">
  <defs>
    <style>
      .cls-1 {
        fill: #fff;
        stroke: #231f20;
        stroke-miterlimit: 10;
      }
    </style>
  </defs>
  <path class="cls-1" d="M360.26,188.42c1.97-1,1.08-1,1.34-1.22-3.23,1.8-1.2,1.27-1.34,1.22Z"/>
  <polygon class="cls-1" points="353.29 180.77 353.96 180.82 348.72 179.46 353.29 180.77"/>
  <path class="cls-1" d="M320.47,171.01c1.48.76,4.48,1.52,7.85,2.31,3.35.86,7.06,1.78,9.96,2.74l.91.45,2.8.28c-3.54-1.11-7.69-2.11-11.54-3.15-3.86-1.01-7.47-1.86-9.97-2.63Z"/>
  <path class="cls-1" d="M303.04,165.29c1.04.52-3.91-.62,4.15,1.01-.39-.13-.51-.16-.74-.24-.72-.16-1.72-.39-3.41-.77Z"/>
  <path class="cls-1" d="M306.45,166.06c3.53.76-2.26-.74,0,0h0Z"/>
  <path class="cls-1" d="M290.1,162.75l4.71.71c-.94-.36-5.08-1.24-3.52-1.05-4.81-.84-3.86-.47-1.19.34Z"/>
  <path class="cls-1" d="M285.58,162.4l2.44.36c-.41-.15-1.05-.29-2.44-.36Z"/>
  <path class="cls-1" d="M293.18,163.58l-5.16-.82c.65.24.68.49,2.37.4-.46.12.59.13,2.8.43Z"/>
  <path class="cls-1" d="M296.06,164.28c2.58.68,5.92,1.51,1.21.76,4.46.89,6.37,1.2,6.08.99-.3-.18-2.82-.9-7.29-1.75Z"/>
  <path class="cls-1" d="M318.6,171.28l3.39,1.11,3.04.55c-1.52-.28-6.58-1.93-6.42-1.66Z"/>
  <path class="cls-1" d="M261.04,157.14c-.32.1,1.51.66,1.83.91l3.49.4c-1.76-.4-5.12-1.05-5.31-1.31Z"/>
  <path class="cls-1" d="M262.86,158.05l-5.22-.6c4.62.8,5.48.82,5.22.6Z"/>
  <path class="cls-1" d="M284.6,163.02c2.86.34,5.71.73,8.56,1.14l-5.09-.75-5.1-.68,1.63.3Z"/>
  <polygon class="cls-1" points="241.25 154.02 244.24 154.11 238.93 153.85 241.25 154.02"/>
  <path class="cls-1" d="M228.11,152.14c2.22.03-2.91-.92-.59-.76-3.57-.46-6.66-.65-9.43-.82,2.93.3,6.03.77,10.02,1.59Z"/>
  <path class="cls-1" d="M213.45,150.22c1.46.14,2.99.23,4.65.33-1.56-.16-3.09-.28-4.65-.33Z"/>
  <path class="cls-1" d="M248.84,155.98c-.39-.15-1.12-.52-4.01-1.05l1.97.73c.62.1,1.32.21,2.04.32Z"/>
  <path class="cls-1" d="M246.87,155.69l-.07-.02c-2.21-.35-3.74-.58-4.4-.69.56.09,1.91.3,4.47.71Z"/>
  <path class="cls-1" d="M249.35,156.07c-.19-.03-.33-.05-.51-.08.19.07.31.1.51.08Z"/>
  <path class="cls-1" d="M271.15,160.17c-3.07-.32-9.45-1.1-3.38.27,2.22.1-1.24-.73,3.38-.27Z"/>
  <path class="cls-1" d="M251.8,156.99l5.48.96c-.09-.13-1.06-.45.47-.33l-5.95-.64Z"/>
  <polygon class="cls-1" points="249.09 156.7 251.8 156.99 249.77 156.64 249.09 156.7"/>
  <path class="cls-1" d="M222.82,151.97c-2.4-.16-5.01-.52-7.95-.91,3.14.53,6.39,1.05,9.48,1.49.46-.07,1.85-.11-1.53-.58Z"/>
  <path class="cls-1" d="M234.5,153.78c-.17-.02-.38-.04-.53-.05.32.08.58.13.53.05Z"/>
  <path class="cls-1" d="M185.98,146.87c.16.05.29.09.45.15.04-.02.07-.04.12-.06l-.57-.09Z"/>
  <path class="cls-1" d="M224.86,152.7c2.36.42,3.78.53,5.15.59-1.78-.22-3.66-.46-5.67-.75-.2.03-.25.07.52.15Z"/>
  <path class="cls-1" d="M205.35,149.26c1.22.27,2.61.54,4.06.82-1.18-.31-3.61-.87-4.06-.82Z"/>
  <path class="cls-1" d="M233.19,153.5c.12.01.23.02.36.03-.76-.2-.67-.15-.36-.03Z"/>
  <path class="cls-1" d="M233.19,153.5c-1.23-.12-2.2-.15-3.18-.2,1.45.18,2.79.33,3.96.43-.29-.07-.58-.16-.78-.23Z"/>
  <path class="cls-1" d="M176.82,148.24c.48-.34,6.74.28,12.04,1.48,5.32.49,2.06-1.31-2.44-2.71-.19.15-.21.31-5.67-.29,1.86.52,11.97,2.31,7.34,1.98-7.22-.87-5.87-1.03-9.33-1.77,2.89.96-9.25-.71-7.8.24l6.34.74c.1.13-2.21-.04-.48.33Z"/>
  <path class="cls-1" d="M196.77,148.58l2.24.27c-2.54-.43-4.34-.86-7.65-1.66-3.74-.36-4.54-.33-4.81-.23l10.99,1.67-.77-.05Z"/>
  <path class="cls-1" d="M209.05,150.29c-1.81.18-7.21-.41-3.98.52,6.57.91,4.65.3,8.6.68-10.61-1.41,3.08.2-4.54-1.14,2.09.23,3.97.47,5.74.71-1.9-.32-3.73-.65-5.45-.98.09.02.16.04.24.06h.05s-.01.01-.01.01c.45.12.6.17.08.07-.04,0-.16-.02-.22-.02-.08.05-.28.07-.5.09-3.06-.53-.47-.18.5-.09.04-.02.12-.02.14-.04-.01,0-.02,0-.04-.01l-10.64-1.29c2.24.38,5.05.78,10.04,1.44Z"/>
  <path class="cls-1" d="M261.96,160.42c-.32-.09-.3-.12-.32-.15-.69-.06-.96-.07.32.15Z"/>
  <path class="cls-1" d="M257.65,159.44c.78.07,1.45,0,3.94.46,2.15.49-.04.2.05.36,1.52.14,5.33.57.63-.42l-.76-.07c-4.23-.87-9.64-2.24-8.88-2.19,1.18.58,2.24,1.02,5.02,1.85Z"/>
  <path class="cls-1" d="M233.05,154.82l-8.87-1.08,4.45,1.02-.2-.26c5.01.82,3.97.39,4.62.31Z"/>
  <polygon class="cls-1" points="185 146.5 186.24 146.23 181.05 146.09 185 146.5"/>
  <polygon class="cls-1" points="173.54 144.79 174.03 144.47 170.97 144.22 173.54 144.79"/>
  <path class="cls-1" d="M161.56,114.61l-2.26,1.35c1.08-.62,1.77-1.04,2.26-1.35Z"/>
  <path class="cls-1" d="M178.23,105.39l.31-.4c-.71.53-.99.77-.31.4Z"/>
  <path class="cls-1" d="M194.83,103.13c3.65,1.09,7.66,2.53,7.31,2l-1.05-.66c-2.61-.45-4.58-.94-6.26-1.34Z"/>
  <path class="cls-1" d="M211.89,11.37c-.25.27-.5.55-.76.83-.41.85-.8,1.64-1.15,2.35.57-.96,1.21-2.05,1.9-3.18Z"/>
  <path class="cls-1" d="M212.01,8.13c.53-.66,1.04-1.3,1.67-2.02.62-.67,1.25-1.32,1.94-1.91-.48.39-1.03.89-1.64,1.55-.32.32-.63.71-.98,1.12-.31.39-.64.81-.99,1.26Z"/>
  <path class="cls-1" d="M67.92,159.72l-2.65,1.61c4.41-1.88,2.38-1.26,2.65-1.61Z"/>
  <path class="cls-1" d="M58.94,116.45c-.75-.33-1.46-.65-2.14-.95-.34-.15-.67-.29-.99-.43-.12-.06-.23-.12-.35-.18-.41-.22-.77-.4-1.1-.55.25.18.48.35.7.51.14.09.27.18.4.27.07.04.14.09.2.13.08.05.31.15.45.21,1.29.59,2.28.97,2.83,1Z"/>
  <path class="cls-1" d="M165.93,107.01c-1.37.83-1.93,1.23-1.84,1.3,1.42-.85,2.19-1.37,1.84-1.3Z"/>
  <path class="cls-1" d="M53.99,113.13c-.28.06-.56.12-.84.18-.18.08-.36.16-.54.24l-.07.03s-.05.02,0,.03l.17.06.34.13c.45.17.86.34,1.29.53-.32-.24-.58-.43-.96-.61l-.15-.07-.08-.03s.05-.02.06-.03c.11-.04.21-.09.31-.14.19-.09.34-.2.47-.33Z"/>
  <path class="cls-1" d="M126.61,155c-.27.03-.6.06-.85.09-.07.07.3.01.85-.09Z"/>
  <path class="cls-1" d="M132.4,180.53c-1-.44-2.61-1.22-4.1-1.99.72.39,1.93,1.02,4.1,1.99Z"/>
  <path class="cls-1" d="M127.79,136.27c2.4.48.39.03,0,0h0Z"/>
  <path class="cls-1" d="M139.14,140.33c-.52-.05-.92-.07-1,.02.22-.06.57-.06,1-.02Z"/>
  <path class="cls-1" d="M72.44,104.89c.07-.02.13-.03.21-.05-.73.1-.6.09-.21.05Z"/>
  <path class="cls-1" d="M131.36,137.22c-.89-.24-1.92-.5-3.04-.77.49.14,1.41.38,3.04.77Z"/>
  <path class="cls-1" d="M130.92,136.92c.82.19,1.47.34,2.09.48.32,0,.06-.11-2.09-.48Z"/>
  <path class="cls-1" d="M124.45,135.58c1.37.28,2.65.57,3.87.86-.46-.13-.66-.19-.53-.18-.7-.14-1.7-.35-3.35-.68Z"/>
  <path class="cls-1" d="M102.23,160.79c.16-.02.35-.05.52-.08,2.38-.74,1.32-.46-.52.08Z"/>
  <path class="cls-1" d="M183.44,125.06c.12.04.18.06.29.08-.12-.03-.26-.11-.36-.15l.07.07Z"/>
  <path class="cls-1" d="M174.99,120.61c1.77,1.06,3.16,1.82,4.45,2.51.66.32,1.28.64,1.91.98.65.29,1.31.58,2.02.89-.83-.8-1.64-1.51-2.33-2.38l-1.53-.34-1.51-.47c-1.04-.29-1.98-.77-3-1.18Z"/>
  <path class="cls-1" d="M120.98,135.39l5.78-2.34c-6.49,3.83-11.5,5.98-5.99,3.95.05-.4,1.44-1.26,3.49-2.36,2.06-1.08,4.77-2.42,7.46-3.8,5.4-2.73,10.8-5.44,10.87-6.27l3.77-1.63c-1.05.53-1.18.69-2.22,1.21,3.69-1.55,4.9-2.45,6.33-3.53,1.43-1.09,3.11-2.31,7.66-4.69,3.2-1.61,5.5-2.62,3.42-1.32l6.86-4.1c2.04-1.12,1.66-.63-.37.48l10.55-6.08-.06.08c1.43-1.01,4.65-3.29,6.23-4.4,2.76-1.4-1.26.91-.5.66l5.64-3.71c2.55-1.09-2.09,2.04-6.13,4.37,3.05-1.02,4.22-1.8,6.13-3.11.96-.65,2.1-1.44,3.76-2.45,1.66-1.02,3.8-2.32,6.79-3.94l-5.33,3.5c3.89-1.52,8-4.33,14.35-7.8-1.55.76-12.9,6.6-6.84,2.47,1.8-1.01,4.17-2.36,7.32-4.77.29.39,3.46-1.82,7.49-4.48l.08.71c2.13-1.5,3.08-2.26,3.8-2.94.71-.69,1.22-1.18,2.38-2.3,2.42-1.89,3.83-3.27,4.83-4.23.5-.5.89-.89,1.23-1.23.35-.34.65-.63.94-.97.7-1.28,1-2.27,1.16-2.87.18-.6.16-.87.13-.88-.05-.01-.38.91-.78,1.7-.43.78-.86,1.43-.84,1.15.02-.14.13-.52.39-1.25.21-.75.59-1.88.66-3.59.17-2.37-.36-4.61-1.26-6.46-.89-1.89-2.12-3.33-3.37-4.72-2.51-2.74-5.51-4.91-8.42-8.1-.7-1.02-.99-1.5-1.02-1.68-.05-.17.1-.03.29.19.43.43,1.1,1.16.65.42-.53-.51-.91-1.07-1.37-1.61-.35-.58-.8-1.13-1.08-1.76-.34-.96-.05-.7.06-.56-.28-.8-.44-1.22-.55-1.48-.12-.26-.21-.34-.32-.49-.1-.15-.19-.37-.31-.9-.09-.54-.19-1.4-.03-2.85-.11-.41,0-1.37.44-2.65.43-1.28,1.19-2.85,2.15-4.54,1.93-3.38,4.71-7.27,6.32-10.96,1.12-1.64-.12,1.02.38.62,1.77-3.51,2.66-5.75,3.27-7.6.54-1.58,1.15-3.99,1.42-6.74-.08-.12-.19-.31-.33-.57-.29-.21-.66-.49-1.09-.77-.86-.57-2.2-1.05-3.83-.87-.39,0-.79.07-1.19.1-.4.08-.79.2-1.2.3-.38.12-.83.32-1.13.43l-.94.47c-1.22.67-2.33,1.47-3.35,2.37,1.16-.95,1.77-1.22,1.87-1.13.09.08-.3.55-.93,1.3-.62.75-1.46,1.8-2.26,3.06-.76,1.24-1.6,2.62-2.41,3.95,1.33-1.46,2.46-2.7,3.22-3.54-1.85,2.7-3.67,5.46-5.46,8.22-.77.92-.38-.02.33-1.5-.34.58-.66,1.14-.92,1.57-2.2,2.78-1.48,1.05-.31-1.23.8-.91,1.6-1.81,2.37-2.69,1.11-2.21,2.1-4.32,1.5-4.13-.32.57-.99,1.61-1.76,2.74.29-.58.45-.97.23-.76-.25.23-.75,1.15-1.54,2.58l-1.88,1.44-.08.61c-2.59,3.47-5.15,6.97-7.64,10.52-4.46,8.2-7.88,15.57-14.78,28.55,1.31-3.44-.37-1.1-.81-1.57,2.52-3.19,5.37-10.08,9.5-16.53-2.15,3.36-1.93,2.47-1.5,1.54-2.18,4-4.33,8.01-6.39,12.07-.3-.52-1.76,2.33-3.66,5.36,1.09-.94.01,1.37-1.6,4.55-1.61,3.19-3.71,7.27-4.82,9.82-.45.16-.19-1.2,3.01-7.17-4.11,6.3-3.37,9.11-7.1,15.42.71-1.49,1.14-2.27,1.26-2.94-.7,1.81-2.14,4.79-3.24,7.13-1.11,2.33-1.88,4.01-1.6,2.9l.64-1.55c-1.11,2.55-2.43,5.85-3.23,9.61-.4,1.87-.65,3.85-.68,5.84,0,.99.07,2,.14,2.98.17.97.24,1.95.5,2.87.87,3.72,2.52,6.83,4.04,8.95.39.52.74,1.01,1.09,1.43.36.4.69.75.98,1.04.56.6,1.02.92,1.24,1,0,.08-.45-.01-.97-.2-.5-.2-1.07-.49-1.36-.71,5.01,4.9,11.62,7.79,17.96,7.79-.88.19.18,1.07.44,1.64.12.29,0,.6-.74.71-.75.09-2.17.09-4.54-.58.67.22,1.38.46,2.16.72.8.2,1.67.38,2.65.56,1.97.21,4.37.35,7.29-.22-.96.04-2.17-.05-2.79-.32-.63-.26-.68-.49.57-.57.87,0,1.6,0,2.23.01.63-.06,1.15-.11,1.6-.15.93-.07,1.56-.26,2.26-.4.7-.14,1.43-.37,2.51-.72.55-.15,1.16-.4,1.89-.7.37-.15.76-.32,1.2-.49.42-.21.87-.44,1.36-.68-1.26.67-1.34.34-.66-.42.34-.38.88-.85,1.5-1.45.32-.29.67-.6,1.05-.91.37-.32.74-.68,1.16-1.03-.41.57,1.03.61-.15,1.77,2.68-2.63,4.82-5.73,6.22-9.07-.57,1.22-.43,1.46.04,1.13.24-.17.56-.48.93-.88.36-.32.82-1.16,1.21-1.95-.21.37,0-.24.47-1.4.25-.58.45-1.33.74-2.16.14-.42.28-.86.44-1.32l.06-.17s-.1-.04-.15-.06l-.35-.1c-.23-.07-.47-.14-.71-.21-.96-.28-1.96-.58-3.02-.83-.93-.23-1.85-.47-2.72-.69-1.3-.32-2.43-.6-3.12-.74l2.14.66,1.07.33.54.17.77.22c-.81-.2-1.56-.39-2.27-.57-.64-.15-1.24-.29-1.8-.42-1.13-.25-2.13-.44-3.04-.59-1.83-.25-3.31-.34-4.78-.44-2.94-.17-5.84-.44-11.63-1.37,1.43,0,3.72-.83-2.18-1.96-.7.03-1.82.08-3.28.15-1.46.11-3.25.23-5.27.31-2.02.1-4.26.1-6.65.15-2.39.07-4.92.07-7.5-.05l-1.95-.5c-2.65-.04-5.29-.02-7.93-.04,4.94-.74,18.98-1.5,26.66-1.04-4.38-.82-1.18-.54-7.81-1.35-2.31-.59,3.67-.02,5.62.22l-3.86-.54-1.93-.27-1.94-.2-7.75-.78c.64.61-11.92.05-11.34.62l8.44.07c2.82.01,5.62.23,8.44.33.31.36-2.17.62-6.07.66-1.95.03-4.27.12-6.77.09-2.51,0-5.2-.13-7.94-.15-2.78-.3,2.11-1.17,1.89-1.4-1.44.24-10.44.26-11.45.2,1.55-.19,3.11-.25,4.66-.36-3.06-.2-5.56.13-8.21.37-2.65.27-5.44.37-9.13.34-2.53.12-7.64-.39-8.04.06,4.21.48,5.15,2.81,2.47,3.56-.22.01-1.16-.01-2.48.04-1.32.05-3.04.13-4.81.2-1.78.06-3.62.12-5.2.18-1.58.08-2.89.17-3.61.17-4.2-.02,6-2.29,2.43-2.31-.13.2-2.38.75-3.33.96-2.66.22,1.02-.72-4.71.17-.87.69-11.6,1.97-2.62.97-2.77.6-4.25.83-5.86,1.06-.8.12-1.64.24-2.68.4-.52.09-1.09.18-1.74.29-.64.14-1.36.29-2.17.47,1.08-.01-.31.68-2.63,1.54-2.32.88-5.6,1.84-8.29,2.7.28-.25-1-.15-1.62-.1-2.79.73-5.29,1.28-7.57,1.93-2.28.65-4.4,1.24-6.49,1.83-1.05.3-2.07.57-3.15.9-1.13.37-2.28.75-3.46,1.14-1.2.4-2.43.82-3.72,1.25-.64.22-1.3.44-1.98.67-.34.12-.68.23-1.02.35l-.52.18-.26.09-.13.05-.06.02.06.03c.27.21,1.66.89,2.69,1.45,1.02.55,1.72.98.16.48,2.06.75,3.95,1.3,7.54,2.8,1.45.72,1.74.92,1.42.85-.16-.04-.46-.14-.85-.28-.19-.07-.41-.15-.63-.23-.28-.11-.57-.23-.87-.35-1.21-.49-2.48-1.01-3.16-1.23-.67-.22-.78-.16.6.62.23,0,1.05.25,2.18.65,1.27.48,2.24.76,3.56,1.22,2.56.86,5.6,1.96,7.86,2.68-.58-.53-3.11-1.56-6.07-2.62-.74-.26-1.51-.53-2.28-.8-.38-.13-.77-.27-1.15-.4l-.58-.2-.65-.25c-1.81-.68-3.51-1.33-4.87-1.84.31-.1,1.2.05,2.37.32.58.14,1.23.3,1.93.49.65.18,1.4.38,2.23.61,1.68.45,3.69,1.05,5.93,1.76,1.12.36,2.3.75,3.54,1.15,1.24.38,2.54.79,3.88,1.2,8.46,2.79,3.46,1.81,4.96,2.22,7.93,2.7,11.45,3.43,14.62,4.02,1.58.31,3.07.61,4.99,1.11,1.92.5,4.29,1.12,7.6,2.19,5.18,1.97-.03,1.1,1.05,1.8-3.54-.86-6.22-1.67-8.59-2.44-2.37-.82-4.44-1.57-6.81-2.26l5.75,1.97c-2.26-.5-6.98-1.72-9.45-2.67,1.06.49,3.31,1.19,6.24,2.12,1.47.45,3.12.97,4.89,1.49,1.78.49,3.68,1.01,5.64,1.55,7.84,2.18,16.77,4.27,23.05,5.91,2.29.33,6.22.95,4.42.35l-4.02-.78c-1.79-.64.12-.33,1.86-.1,1.74.24,3.29.48.78-.16,2.72.41,5.61.83,8.75,1.35,3.16.48,6.57,1.1,10.34,1.94l1.32.86c-.13-.19-4.9-1.29-7.07-1.53,3.2.39,11.5,3,15.12,2.84l-5.26-1.39c5.48.7,12.3,1.2,19.03,2.49-2.98-1.1-1.58-.16-6.25-1.68,2.01.79-2.31.05-6.31-.64-3.99-.71-7.67-1.39-4.42-.32-2.38-.85-4.49-1.32-6.79-1.81-2.29-.52-4.77-1.06-7.9-2.03.16.23,2.18.84-3.42-.4-.27,0-.88-.05-1.27-.09-.17-.04-.23-.06-.38-.09.11.03.19.06.3.09-.25-.02-.27-.02.11.03,1.32.37,2.38.7,2.8.9-2.88-.13-11.82-2-14.88-2.51-3.3-.85,1.44.09-.32-.53l-4.58-.68c-.35-.52-8.6-2.91-.76-1.22l-6.99-1.76c-2.03-.62-4.44-1.36-6.78-2.04-2.34-.68-4.63-1.25-6.38-1.67-3.23-1.06-8.37-1.97-5.43-1.46-3.65-.94-7.24-2.06-10.85-3.13l-.06-.14c-2.66-.84-5.31-1.79-8.04-2.7-1.36-.45-2.74-.91-4.12-1.37-1.37-.5-2.75-1.01-4.14-1.52-2.6-.97-6.31-2.36-6.86-2.68-.61-.28-1.2-.57-1.68-.84-.24-.13-.46-.26-.64-.38-.11-.03.06-.06.16-.08l.32-.08.63-.14c.57-.26,1.22-.55,2.1-.89.22-.08.46-.17.7-.26.12-.04.25-.09.38-.13.29-.09.59-.18.9-.27,1.25-.36,2.61-.76,4.11-1.19l1.28.02c1.14-.38,2.58-.81,4.12-1.25,1.56-.38,3.23-.78,4.82-1.16,3.17-.75,5.99-1.5,6.96-1.88,1.32-.02,3.41-.33,5.92-.81,1.25-.25,2.62-.52,4.05-.8,1.44-.26,2.94-.54,4.47-.82,1.53-.29,3.08-.59,4.61-.88,1.53-.31,3.07-.49,4.53-.73,2.93-.44,5.61-.86,7.71-1.07l.26-.54c2.89-.28,5.72-.6,8.72-.96,3-.34,6.2-.57,9.79-.92l-.47-.42c.78-.1,1.61-.18,2.49-.25.88-.05,1.82-.07,2.79-.09,1.95-.04,4.07-.04,6.3-.04,2.23-.04,4.58.14,6.98.2,1.2.03,2.42.07,3.64.1,1.22.02,2.45.05,3.68.12-.34.08-1.13.04-2.06.03-.93-.01-2-.06-2.88-.13,2.94.24,5.95.51,8.99.65,1.52.07,3.05.12,4.58.15,1.53.05,3.05.16,4.57.23,1.52.08,3.03.16,4.52.24.75.04,1.49.09,2.23.13.73.08,1.46.15,2.19.23,2.89.32,5.69.71,8.31,1.23,2.65.25,4.54.64,6.37,1.05-.24-.04-.46-.07-.65-.09.27.05.67.11,1.08.18,1.15.27,2.33.54,3.6.84-1.08-.29-2.11-.55-3.02-.75,1.01.16,2.29.35,3.69.57,1.39.25,2.91.52,4.41.78l1.17.73c.24.05.44.08.69.13,2.89.78,2.4.26.92-.41,1.52.24,2.93.4,4.01.56,1.1.67,3.05,1.09,5.12,1.54.36.08.72.15,1.08.23.27.06.54.13.78.2.24.08.46.16.61.25.14.01.01.17-.07.29-.08.12-.17.24-.26.34.03.08.02.25-.02.49-.06.23-.16.54-.28.89-.03.12-.26.54-.43.87-.18.35-.37.72-.57,1.09-.48.7-.89,1.49-1.45,2.18-.54.71-1.06,1.42-1.65,2.03-.28.32-.56.62-.82.92-.28.28-.55.55-.81.8-.25.26-.49.5-.7.72-.23.21-.44.4-.62.58-.36.36-.61.65-.71.85-.15-.04-.88.43.41-.5-2.73,1.82-5.75,3.09-8.52,4.04-.5-.07-.99-.21-1.47-.31-2.21.7-4.58,1.17-6.98,1.12-1.07-.21-1.95-.52-2.63-.72-.66-.28-1.11-.49-1.3-.63-.19-.14-.12-.21.25-.19.38-.01,1.03.17,2.07.21-2.47-.33-4.18-.94-5.44-1.48-.63-.3-1.19-.51-1.65-.78-.47-.27-.89-.52-1.29-.75-.42-.22-.77-.52-1.19-.79-.4-.29-.86-.56-1.32-.96-.95-.75-2.17-1.7-3.69-3.34l.58.09c-.49-.61-1.1-1.29-1.63-2.07-.59-.74-1.1-1.59-1.6-2.4-.5-.81-.85-1.66-1.19-2.37-.26-.75-.45-1.4-.52-1.87-.3-1.75-.91-4.73-.55-8.56.33-3.85,1.75-8.43,3.86-13.2,4.33-9.58,9.86-20.34,14.75-28.44-1.4,1.33-.22-.54,1.26-2.87,1.5-2.32,3.31-5.09,3.12-5.64.8-.82,2.26-3.01.92-.25,4.66-8.47,7.87-12.19,10.85-18.21.84-.78-.79,1.95-.11,1.22.37-.68,1.47-2.7,2.16-3.45.68-.73-.59,1.31-1.31,2.66,5.37-8.26,5.32-9.51,5.05-10.57,3.16-3.91,4.58-5.96,6.28-9.2.6-.63,1.41-1.36,1.61-1.42.1-.03.04.12-.27.55-.31.45-.85,1.22-1.7,2.45.36-.47,1-1.4,1.77-2.31.8-.93,1.86-1.99,3.1-2.89.61-.45,1.27-.86,1.94-1.16.42-.21.91-.34,1.38-.4.48-.06.95.04,1.36.21.2.1.4.2.55.34.06.07.22.11.19.21-.01.1-.02.19-.03.29-.15,1.26-.35,2.09-.26,2.42-.24.47-.63,1.55-1.08,2.61-.45,1.06-.89,2.11-1.07,2.52-1.76,3.38-2.92,5.15-3.98,6.95-1.06,1.81-2.2,3.57-3.93,7.09.35-.64.71-1.27,1.08-1.88-.38,1.54-1.07,2.99-1.86,4.86-.75,1.87-1.73,4.23-1.7,7.54l-.08-.19c-.08,1.89.19,3.43.51,4.64.19.6.36,1.13.55,1.59.21.45.4.85.57,1.21.75,1.37,1.24,2.01,1.75,2.62.49.63,1.01,1.2,1.98,2.31.96,1.1,2.49,2.65,4.82,5.17l-.19-.87c.41.04,1.14.63,2.04,1.6.9.97,1.96,2.35,2.79,4.02.84,1.67,1.27,3.65,1.07,5.59-.19,1.94-1.03,3.75-2.06,5.32.6-.68,1.14-1.41,1.57-2.2-.32.97-1,2.05-1.94,3.03-.94.98-2.14,1.88-3.4,2.67-2.52,1.58-5.34,2.78-7.24,3.95-.86.45,1.2-.95,2.29-1.74-10.03,5.8-.91,1.34-8.06,6.17-1.52.58,1.25-1.84-3.65,1.27-1.27.69-4.72,3.1-8.71,5.86-3.97,2.78-8.6,5.7-12.18,7.43,1.64-.66,3.26-1.32-.09.89-1.31.8-2.89,1.68-4.6,2.6-1.71.91-3.56,1.82-5.37,2.76-3.63,1.86-7.14,3.79-9.38,5.49-.72.31-1.01.39-1.07.35-4.03,2.42-13.26,7.58-15.6,9.23-4.57.61-25.72,13.95-26.36,12.43-4.34,2.09-8.65,4.26-13.02,6.29l.28-.3c-8.43,3.8-11.24,5.52-14.06,7.17-1.99.78-.63.01-.5-.13-12.44,5.28-13.67,5.82-23.75,11.07h-1.28c-1.36.74-5.93,2.48-11.66,4.75-5.74,2.24-12.64,5-18.67,7.78.1-.1.32-.29,1.26-.76-13.57,6.24-33.63,12.11-38.04,15.81l-2.09.94.86,2.91,7.35-1.83c-12.53,2.38,1.71-1.14-3.49-.4,4.89-1.09,12.82-2.02,6.79-.72l-.96.1c-2.03,1.39,15.59-2.84,15.38-2.15,24.56-5.15,48.57-9.89,71.48-15.18l-2.8-.1,7.99-1.82c2.13-.32,2.94-.1-2.76,1.2,3.09-.29,9.48-2.57,9.6-2.77,11.21-2.36-4.16,1.87-.74,1.07l4.63-1.16-1.07.17c3.69-1.19,3.96-1.56,10.8-3.18,4.36-.91,2.32-.1,4.03-.48,0,.03.15.01.55-.08.4-.09,1.05-.26,2.07-.53l10.05-2.4-4.15.43c4.38-1.37,9.44-2.3,4.65-1.79,3.52-.34,12.89-2.59,21.9-4.88,9.01-2.29,17.66-4.64,19.77-5.03,6.1-2.02,12.22-3.65,19.8-5.63-1.91.39-3.21.07,3.34-1.62-1.12,1.06,2.62.16,7.17-.96l-.8-3.01c-3.71.85-7.97,1.87-10.48,2.02,2.44-.27-2.2.91-6.51,2.04-4.31,1.09-8.28,2.14-4.46,1.7-5.51,1.19-.45-.4-4.68.26-12.95,3.51-28.91,6.03-45.17,9.15-.22.22,2.56-.01-.89.88l-8.77.66c-3.21.65-2.8,1.52-8.8,1.89.86,0,2.14.02-.02.44-14.83,2.04-29.93,4.24-45.16,6.14l.45,3.18c4.23-.7,8.6-.59,12.87.18,4.28.75,8.46,2.22,12.51,3.95,8.12,3.5,15.69,8.26,23.45,12.78-3.83-2.4-1.17-1.02,1.9.55-1.96-1.09.24-.36-.04-.77,4.03,2.31,8.16,4.5,12.53,6.33.66.08,1.9.38,3.4.83.76.2,1.59.42,2.46.64.87.22,1.78.4,2.68.6,3.62.75,7.22.88,7.96.55-.75-.01-1.51.03-2.26-.03l-2.25-.16c1.52-.04,1.75-.21,1.29-.47-.23-.13-.64-.27-1.15-.43-.51-.17-1.11-.38-1.75-.6-1.29-.39-2.67-1-3.67-1.45-.99-.51-1.6-.93-1.33-1.11-3.2-.45-7.1-2.22-11.3-4.47-4.21-2.24-8.76-4.95-13.76-6.96-1.98-1.3,1.92.69.91-.11-2.59-.92-5.47-2.45-10.85-5.37l.66.22c-6.43-3.19-11.55-5.33-16.85-6.85-5.28-1.45-10.85-2.41-17.99-1.47l.57,4.06c2.23-.23,5.06-.53,8.21-.85l-1.47-.3c4.1-.44,4.98-.42,6.91-.55,4.6-1.31-11.49,1.43-7.31.09,2.77.15,9.98-.76,16.96-1.73,6.98-.96,13.73-1.96,15.64-1.72,6.27-.98-1.92-.25,4.34-1.23l1.71.02,1.52-.64c4.11-.61,6.24-.6,6.44-.38-1,.15-2.82.55-3.88.75,5.38-.53,14.97-2.72,16.8-2.96l-6.03.91c16.99-3.3,37.78-7.18,53.92-11.65l-1.29.07c6.04-1.62,8.56-2.19,11.17-2.75,2.61-.54,5.31-1.11,11.68-2.81l-.84-3.17c-.17.05-.43.12-.7.2l.48-.18c-2.64.95-6.22,2.03-9.92,3,3.34-1.17-6.55,1.24-2.15-.25-13.23,3.98-6.51,2.1-15.12,5.24l-2.13.17c-2.92,1.11-3.13,1.35-9.87,3.2,5.47-1.75-4.46.57,1.65-1.45-14.39,2.88-20.89,6.18-27.69,6.67-6.28,2.63,12.44-2.54,8.84-1.41,3.14-.45-5.2,2.1-9.69,3.12-4.56,1.09-8.04.67-19.48,3.45,1.14-.27,1.2-.37,2.34-.64-4.34.78-8.31,2.39-13.67,3.22-2.8,1.3-6.84,1.59-7.5,2.56l10.47-2.68c-5.91,1.62-11.28,3.86-21.22,5.7.73-.33,3.61-1.22,5.59-1.8-2.93.44-5.5,1.44-8.53,1.9.67-.98,12.75-3.13,18.99-5.25-3.15.42-11.95,3.41-8.93,1.82-4.37,2.14-11.33,2.51-18.92,5.08l.41-.58c-1.21.35-3.71,1.16-5.98,1.66l3.96-1.53c-6.18,1.95-12.24,2.29-18.22,3.91,12.65-2.83,2.96-.07,8.39-.93-15.48,4.09-9.24.8-26.69,4.81,2.36-.57,8.96-1.63,5.3-.62-3.35.62-7.79,1.39-9.89,1.58-11.58,2.55,1.88.11-2.99,1.43-4.07.27-5.65,1.43-10.7,2.68l-.13-.46c-13.3,2.42-3.31,1.71-15.31,3.79l4.91-1.69-6.18,1.44,1.17-.8c-5.4,1.42-7.82,1.9-12.17,2.68l1.31,4.45c.86-.32,1.93-.71,3.15-1.17-1.59.27.5-1.14,6.06-3.37,3.9-1.25-1.96,1.28,5.91-1.94-1.67,1-3.48,2.12-7.08,3.08-.29.29-1.65.98-1.95,1.27,4.21-1.32,10.31-4.02,13.16-5.19-1.11.43-2.43.93-3.13,1.14l11.18-5.22c1.87-.56.49.15-.87.85,2.3-.98,3.81-1.85,7.19-3.27-.73.72-.37,1.01-5.11,3.15l10.71-4.85c.79-.13,5.75-1.86,4.4-1.14,6.1-2.29,14.46-6.83,22.51-9.96.38-.25,1.18-.67,2.85-1.44,7.47-3.16,14.28-5.55,22.83-10.02l5.27-1.6c6.79-3.27-7.09,2.27,4.21-3.2,7.96-3.94,3.26-.85,6.17-1.98,3.88-2.15,10.48-6.15,18.09-9.16-2.38,1.29-4.33,2.11-6.59,3.25ZM202.48,90.66c-1.48,1.04-4.37,3.2-5.64,3.65,1.46-1.55,2.94-2.16,5.64-3.65ZM203.36,22.1c.61-1.21,1.83-2.88,3.31-4.7-.93,1.42-2.03,2.99-3.31,4.7ZM101.59,130.41c-.08-.01-.13-.02-.19-.03-3.8-1.23-2.45-.79.19.03ZM109.57,132.68c.82.14.78.06.46-.09-.59-.02-2.4-.46-4.45-1.01.54.26,1.56.61,3.99,1.1ZM128.55,157.85l-1.61.26c3.53-1,2.56-.63,1.61-.26Z"/>
  <path class="cls-1" d="M211.97,8.55c.36-.37.52-.43.66-.47.35-.62.28-.69-.66.47Z"/>
  <path class="cls-1" d="M68.41,159.43l-.26.11c-.13.09-.2.15-.23.19l.49-.3Z"/>
  <path class="cls-1" d="M104.76,96.65c1.72-.17,2.68-.22,3.33-.22.08-.13-.71-.12-3.33.22Z"/>
  <path class="cls-1" d="M152.74,140.9l-5.25-.83c2.53.44,3.42.7,4.68,1.01-.1-.13-1.07-.47.57-.18Z"/>
  <path class="cls-1" d="M197.94,151.07c.78.05,1.64.23,2.41.28l-.18-.25c-3.29-.46-5.61-.61-2.23-.03Z"/>
  <path class="cls-1" d="M157.32,143.33c.35.47,3.67.89,7.36,1.45-.22-.04-.43-.07-.65-.11,1.18-.38-2.77-.86-6.71-1.33Z"/>
  <path class="cls-1" d="M165.53,144.9c1.14.16,2.3.34,3.41.54.47-.16-1.37-.27-3.41-.54Z"/>
  <path class="cls-1" d="M119.86,134.85c1.7.5,1.19-.26,2.13.12,2.04-.06-11.6-2.02-2.13-.12Z"/>
  <polygon class="cls-1" points="160.07 145.15 158.83 144.44 156.7 144.48 160.07 145.15"/>
  <path class="cls-1" d="M131.15,139.38c1.93.47,3.87.9,5.82,1.32-.07-.1.68,0,1.6.14-3.61-.7-7.53-1.63-7.42-1.46Z"/>
  <path class="cls-1" d="M138.57,140.84c1.88.38,3.67.71,4.73.84-1.02-.19-3.21-.6-4.73-.84Z"/>
  <polygon class="cls-1" points="152 143.91 150.28 143.49 146.14 142.7 152 143.91"/>
  <path class="cls-1" d="M69.38,122.4c-2.05-.7-4.13-1.32-6.17-2.08-.68-.09.93.69,3.24,1.42,1.51.41,3.81,1.16,2.92.67Z"/>
  <path class="cls-1" d="M87.69,129.83c-1.66-.6-1.74-.74-2.65-1.18l-.37.54,3.02.65Z"/>
  <path class="cls-1" d="M69.54,124.07c-.67-.05-9.11-2.72-1.28.03.68.06,6.9,2.12,1.28-.03Z"/>
  <polygon class="cls-1" points="115 97.17 113.35 97.35 113.69 98.34 115 97.17"/>
  <path class="cls-1" d="M201.64,99.21c-3.79-.91-4.28-.85-4.67-.77-.39.07-.68.15-4.12-.57-1.84-.07,5.62,1.2,3.74,1.1,4.64.7,7.03,1.34,5.05.25Z"/>
  <path class="cls-1" d="M196.58,98.96c-.74-.12-1.54-.18-2.39-.26,1.35.15,1.99.21,2.39.26Z"/>
  <path class="cls-1" d="M149.9,187.18l2.57.52,2.62.36c-1.12-.24-2.25-.4-3.34-.72l-1.85-.17Z"/>
  <path class="cls-1" d="M159.92,187.14l1.27.59c1.04-.3,2.05-.64,3.05-.97-1.16.18-3.43.54-4.33.38Z"/>
  <path class="cls-1" d="M214.86,84.31l.23-.34c-.74.28-1.73.91-3.7,2.16l3.47-1.82Z"/>
  <polygon class="cls-1" points="156.33 118.15 157.36 117.61 155.18 118.12 156.33 118.15"/>
  <path class="cls-1" d="M105.84,143.91c2.11-.95,4.52-2.21,6.64-3.17-4.53,2.22-7.51,2.77-6.64,3.17Z"/>
</svg>