<?xml version="1.0" encoding="UTF-8"?>
<svg id="Layer_1" data-name="Layer 1" xmlns="http://www.w3.org/2000/svg" viewBox="0 0 480.14 133.18">
  <defs>
    <style>
      .cls-1 {
        fill: #fff;
        stroke: #231f20;
        stroke-miterlimit: 10;
      }
    </style>
  </defs>
  <path class="cls-1" d="M476.21,49.12c1.23.17.82-.3,1.01-.35-2.06-.13-.97.47-1.01.35Z"/>
  <polygon class="cls-1" points="455.89 45.6 456.3 45.55 453.26 44.94 455.89 45.6"/>
  <path class="cls-1" d="M437.8,38.18c1.38,1.45,6.51,2.87,9.64,4.4l.47.37,1.67.05c-3.97-1.44-9.16-3.36-11.78-4.82Z"/>
  <path class="cls-1" d="M429.06,32.22c.46.53-2.14-.79,2.15,1.16-.19-.14-.25-.18-.37-.26-.38-.18-.9-.44-1.78-.9Z"/>
  <path class="cls-1" d="M430.84,33.12c1.86.9-1.11-.81,0,0h0Z"/>
  <path class="cls-1" d="M422.2,28.98l2.56,1.01c-.44-.4-2.6-1.53-1.74-1.23-2.58-1.14-2.13-.73-.82.22Z"/>
  <path class="cls-1" d="M419.65,28.28l1.32.54c-.19-.17-.52-.36-1.32-.54Z"/>
  <path class="cls-1" d="M423.76,29.98l-2.79-1.15c.3.28.24.51,1.27.55-.32.08.31.16,1.52.6Z"/>
  <path class="cls-1" d="M425.23,30.84c1.3.83,3.03,1.8.47.79,4.72,2.25,4.25,1.46-.47-.79Z"/>
  <path class="cls-1" d="M436.58,38.42l1.76,1.06,1.71.52c-.86-.24-3.5-1.84-3.48-1.58Z"/>
  <path class="cls-1" d="M406.9,21.18c-.22.07.68.76.79,1.02l1.93.69c-.91-.54-2.68-1.45-2.72-1.71Z"/>
  <path class="cls-1" d="M407.69,22.19c-.96-.34-1.92-.69-2.9-1.02,2.49,1.13,2.98,1.25,2.9,1.02Z"/>
  <polygon class="cls-1" points="418.85 28.77 423.55 30.51 417.99 28.35 418.85 28.77"/>
  <path class="cls-1" d="M396.05,16.63l1.76.31c-1.04-.21-2.07-.43-3.11-.61.45.1.91.19,1.35.3Z"/>
  <path class="cls-1" d="M388.59,14.15c1.34.1-1.58-.98-.2-.76-1.04-.27-2.03-.48-2.95-.64-.93-.15-1.81-.24-2.64-.33,1.75.28,3.55.82,5.8,1.73Z"/>
  <path class="cls-1" d="M380.01,12.12c.88.09,1.79.19,2.78.3-.92-.17-1.84-.28-2.78-.3Z"/>
  <path class="cls-1" d="M400.02,19.06c-.19-.17-.51-.59-2.09-1.3l.97.83c.34.14.72.3,1.11.47Z"/>
  <path class="cls-1" d="M398.94,18.62l-.03-.03c-1.22-.49-2.07-.82-2.43-.97.31.13,1.05.42,2.46.99Z"/>
  <path class="cls-1" d="M400.3,19.18c-.1-.04-.18-.08-.28-.12.09.08.15.12.28.12Z"/>
  <path class="cls-1" d="M411.88,24.93c-1.72-.56-5.19-1.91-2.09-.04,1.28.28-.49-.79,2.09.04Z"/>
  <path class="cls-1" d="M401.47,20.25c.99.44,1.96.92,2.94,1.38-.01-.13-.48-.51.38-.27-1.11-.37-2.2-.76-3.32-1.11Z"/>
  <polygon class="cls-1" points="399.95 19.76 401.47 20.25 400.38 19.75 399.95 19.76"/>
  <path class="cls-1" d="M385.42,13.84c-1.42-.19-2.94-.55-4.66-.92,1.81.52,3.7,1,5.47,1.53.29-.06,1.13-.06-.81-.61Z"/>
  <path class="cls-1" d="M392.06,16.01c-.1-.02-.22-.05-.31-.08.17.09.32.16.31.08Z"/>
  <path class="cls-1" d="M363.51,10.97c.1.03.18.05.28.08.02-.02.04-.05.07-.07h-.34Z"/>
  <path class="cls-1" d="M386.51,14.61c1.33.46,2.17.6,2.97.73-1.02-.28-2.1-.58-3.25-.9-.13.03-.16.06.28.16Z"/>
  <path class="cls-1" d="M375.18,11.44c.72.21,1.54.42,2.4.63-.69-.25-2.12-.7-2.4-.63Z"/>
  <path class="cls-1" d="M391.34,15.68c.07.02.13.03.21.05-.41-.23-.37-.17-.21-.05Z"/>
  <path class="cls-1" d="M391.34,15.68c-.71-.17-1.29-.24-1.86-.33.83.23,1.6.43,2.27.59-.16-.08-.31-.18-.41-.26Z"/>
  <path class="cls-1" d="M358.42,13.87c.11-.2,1.06-.48,2.39-.64,1.33-.08,3.03-.07,4.59.15,3.09-.19,1.18-1.62-1.61-2.33-.1.18-.11.33-3.35.57,1.16.21,7.18.52,4.45.87-2.13.1-3,.06-3.6-.03-.6-.1-.93-.22-1.97-.24,1.77.37-5.35,1.11-4.34,1.77l3.65-.52c.07.11-1.24.38-.22.41Z"/>
  <path class="cls-1" d="M370.02,11.34l1.34.1c-1.51-.27-2.6-.44-4.62-.91-2.26.14-2.73.32-2.89.44,2.21-.03,4.42.15,6.63.35-.15,0-.31,0-.46.01Z"/>
  <path class="cls-1" d="M377.34,12.29c-1.12.25-4.3-.07-2.43.7,3.85.58,2.75.12,5.08.38-6.21-1.17,1.83.13-2.61-1.03,1.24.17,2.34.38,3.38.58-1.11-.28-2.18-.57-3.18-.86.05.02.09.04.14.05h.03s0,.01,0,.01c.26.11.34.16.04.07-.02,0-.1-.01-.13-.02-.05.05-.18.08-.31.11-1.8-.38-.27-.16.31-.11.02-.02.08-.03.09-.05h-.02c-2.11-.29-4.22-.56-6.35-.69.67.11,1.42.21,2.38.32.95.14,2.11.31,3.59.54Z"/>
  <path class="cls-1" d="M406.39,24.33c-.16-.11-.14-.14-.14-.17-.39-.12-.54-.15.14.17Z"/>
  <path class="cls-1" d="M404.17,23.05c.44.13.86.11,2.17.77,1.1.65-.09.19-.09.34.85.26,2.95,1.01.51-.34l-.42-.13c-2.21-1.17-4.97-2.94-4.54-2.82.52.64,1,1.16,2.38,2.17Z"/>
  <path class="cls-1" d="M390.95,16.95c-1.67-.48-3.35-.94-5.05-1.34.81.37,1.63.71,2.44,1.1l-.06-.26c2.79,1,2.26.54,2.67.49Z"/>
  <polygon class="cls-1" points="362.9 10.75 363.61 10.3 360.53 10.94 362.9 10.75"/>
  <path class="cls-1" d="M355.98,11.13l.22-.41c-.6.13-1.21.23-1.8.39.52-.02,1.06.02,1.58.02Z"/>
  <path class="cls-1" d="M233.34,110.94l-1.47.27c.7-.11,1.15-.2,1.47-.27Z"/>
  <path class="cls-1" d="M230.13,106.98l-.23.25c.49-.21.68-.34.23-.25Z"/>
  <path class="cls-1" d="M278.58,15.88c1.27-1.82,2.91-3.71,2.38-3.69l-.69.4c-.63,1.39-1.18,2.43-1.7,3.28Z"/>
  <path class="cls-1" d="M228.83,83.45c.16-.14.32-.29.49-.44.2-.52.38-1.01.55-1.45-.31.57-.67,1.21-1.04,1.89Z"/>
  <path class="cls-1" d="M229.36,85.77l-1.95,2.18c.47-.47,1.1-1.17,1.95-2.18Z"/>
  <path class="cls-1" d="M187.24,124.19c.27-.01.49-.06.65-.15-.36-.19-.42.02-.65.15Z"/>
  <path class="cls-1" d="M292.4,38.44c-1.7.91-2.98,1.72-4.11,2.45,2.05-1.09,3.79-1.82,4.11-2.45Z"/>
  <path class="cls-1" d="M237.48,110.42s.09-.02.1-.03l10.05-6.25-10.5,1.84c-.86.15-1.21.27-1.18.36.59-.1,1.02-.19,1.19-.26l.43,4.21c-.14.06-.17.1-.09.13Z"/>
  <path class="cls-1" d="M283.74,44.02c.3-.16.59-.32.89-.49,1.11-.85,2.23-1.7,3.67-2.63-1.52.8-3.19,1.81-4.56,3.12Z"/>
  <path class="cls-1" d="M22.58,123.61s.09.09.12.14c.04-.04-.02-.08-.12-.14Z"/>
  <path class="cls-1" d="M12.86,124.66c.54.24,1.38.69,2.22,1.02-.4-.18-1.07-.49-2.22-1.02Z"/>
  <path class="cls-1" d="M329.14,17.73c1.34-.56.2-.13,0,0h0Z"/>
  <path class="cls-1" d="M336.33,16.92c-.27.14-.47.28-.48.38.08-.14.25-.26.48-.38Z"/>
  <path class="cls-1" d="M273.62,54.31s-.06.04-.1.07c.4-.17.33-.14.1-.07Z"/>
  <path class="cls-1" d="M331.24,17.11c-.53.15-1.13.34-1.77.56.29-.08.83-.25,1.77-.56Z"/>
  <path class="cls-1" d="M330.9,17.02c.47-.17.84-.3,1.2-.43.15-.14-.02-.12-1.2.43Z"/>
  <path class="cls-1" d="M327.26,18.5c.77-.31,1.5-.58,2.21-.83-.28.08-.4.1-.33.06-.39.16-.95.39-1.87.77Z"/>
  <path class="cls-1" d="M116.8,124.97c-.09-.02-.2-.04-.3-.06-1.44.1-.81.11.3.06Z"/>
  <path class="cls-1" d="M273.14,21.84c.03-.06.04-.09.07-.15-.04.05-.09.12-.13.17l.06-.02Z"/>
  <path class="cls-1" d="M270.67,26.34c.71-2.13,1.43-3.14,2.41-4.48l-1.96.76-.44,3.72Z"/>
  <path class="cls-1" d="M207.88,115.65c1.17-.19,2.35-.32,3.52-.48-3.99,1.61-6.98,2.25-3.66,1.92.06-.72,3.37-1.64,6.71-2.39,3.33-.78,6.7-1.4,6.83-2.11.78-.04,1.56-.09,2.35-.11-.66.09-.75.19-1.41.29,4.57-.07,3.17-1.55,9.02-2.08,2.04-.12,3.47-.08,2.11.23l4.11-.68-.42-4.11-.39.09c-1.36.17-1.06-.11.3-.28-2.38.37-4.75.77-7.08,1.34l.04-.05c-.97.39-3.14,1.28-4.19,1.71-1.8.31.84-.39.35-.42-1.24.47-2.5.9-3.72,1.42-1.65.15,1.38-1.2,4.07-1.83-1.97-.18-2.77.13-4.03.69-1.26.58-3.01,1.31-6.9,2.43,1.15-.52,2.31-1.03,3.48-1.49-2.57.08-5.26,1.41-9.36,2.83.52-.1,2.6-.76,4.09-1.03,1.48-.29,2.33-.29.4.71-1.16.37-2.66.99-4.64,2.26-.23-.42-2.24.69-4.71,2.12l-.14-.65c-2.59,1.73-2.21,1.88-3.59,3.11-2.91,1.82-3.77,1.86-4.67,2-4.34,3.06,2.84-1.2-1.05,1.88l3.22,3.34c.12-.16.27-.36.45-.59,2.99-3.33,4.79-5.92,7.8-10.36,2.12-2.32-.03.67.81-.09l1.32-2.49c.43-.52.42-.26.41-.12,1.29-1.96-.37-.54,1.75-3.55.05-1.21,5.46-5.31,7.57-9.43.82-.78-.02.67.39.55,3.38-5.27,2.93-4.49,5.45-9.01l2.95-3.24c-2.29,2.29-.31-1.34,1.43-4.5-.86.78-1.6,1.44-2.06,1.9l3.11-4.8c.49-.49.33.1,0,1.01.18-.35.36-.68.5-.93,1.4-1.51,1.07-.44.49.96-.52.48-1.04.96-1.54,1.43-.52,1.37-.96,2.69-.49,2.67.16-.34.53-.96.97-1.61-.13.36-.2.61-.05.51.17-.12.41-.68.83-1.53l1.35-.63-.04-.42,4.76-5.81c1.29-2.38,2.37-4.68,3.73-7.27,1.37-2.58,2.98-5.47,5.27-9.05-.77,2.03.44.86.89,1.31-1.86,1.53-3.53,5.57-6.2,9.08,1.39-1.84,1.34-1.25,1.08-.72,1.36-2.25,2.71-4.51,4.04-6.78.31.44,1.27-1.15,2.61-2.72-1.7.71,2.78-5.2,4.32-8.02.39.02.24.85-2.03,4.03,3.04-3.14,2.18-5.25,5.06-8.4-.52.8-.85,1.19-.92,1.6.99-2.02,4.21-6.4,3.75-5.18l-.52.79c1.83-2.59,4.45-6.63,6.63-10.15,2.15-3.55,3.82-6.59,3.72-7.22.13,0,.41,1.25.35,1.66,1.25-3.67,2.42-7.38,3.63-11.06.09,1.23,3.6-1.08,1.15,3.58.89-1.22,2-2.73,3.45-5.57-.63.82-2.25,1.62-1.56.39,2.72-2.85,1.78-2.04,4.87-5.72-.94,1.23-1.02-.82.27-2.89-.05.41,1.07.42.71,1.24l2.18-5.76c-.61,1.4.68.72,1.65-.28-.1.08-.06-.04.09-.31l-3.48-2.02c-.54,1.09-2.62,4.59-3.13,5.8l1.44-2.16c-1.69,3-2.13,4.69-2.52,6.38-.4,1.69-.76,3.38-2.25,6.42.14-.84-.43-2.46-2.02.63-.17,1.69-.41,7.52-2.21,13.21l-.73.94c-.46,1.46-.87,2.94-1.3,4.4.15-2.97,1.47-11.12,2.68-15.45-1.27,2.25-.67.49-2.16,4.05-.82,1.14.38-2.13.85-3.17-1.28,2.72-2.5,5.47-3.67,8.24.75-.13-1.87,6.66-1.19,6.55.9-3.13,1.88-6.24,2.9-9.35.77-.1-.41,5.92-2.64,11.83-.8,1.43-.71-1.54-.97-1.49-.09.85-1.59,5.84-1.92,6.35l.53-2.67c-.7,1.63-.95,3.08-1.25,4.59-.32,1.51-.67,3.1-1.6,5.04-.24.69-.75,1.69-1.17,2.55-.18.32-.47,1.1-.64,1.6-.17.52-.24.88-.17.97.45-.93.96-1.61,1.41-1.95.42-.25.86-.36,1.25-.36.8-.01,1.41.52,1.49,1.28-.07.15-.6,1.29-1.28,3.01-.83,2.09-1.71,4.33-2.05,5.19-.77,1.77-1.13,1.77-1.37,1.3-.25-.42-.37-1.33-1.09.48.23-.15.13,1.18.07,1.71-.37,1.14-.55,1.27-.75,1.61-.19.32.09.19,2.08-1.2.75-.92,2.55-2.14,3.63-2.84.53-.35.88-.58.73-.52-.14.06-.78.41-2.01,1.06,1.78-1.33,2.64-1.89,3.63-2.51.5-.32,1.02-.65,1.68-1.06.33-.22.7-.46,1.11-.74.38-.26.81-.56,1.29-.89-1.25.33,1.97-3.19,4.54-5.2-.06.25.67.02,1.02-.1,5.52-3.75,8.64-5.54,13.76-9.06.56-.2,3.16-1.71,2.27-.75.67-.6,1.22-1.25,2.8-2.34,3.4-1.59-3.48,2.47-.75,1.47-.03-.48,3.8-3.22,5.95-4.92-1.03-.05-5.33,3.37-7.44,5.13-.48-.69,2.94-4.13,8.21-7.99,4.26-2.97,2.19-.75,2.88-1.34,4.17-2.5,5.76-3.9,7.23-5.09,1.47-1.2,2.77-2.29,6.52-3.94,3.09-1.06.63.88,1.44.88-1.8,1.1-3.28,1.77-4.59,2.39-1.31.63-2.48,1.16-3.71,1.88l3.17-1.54c-1.07.84-3.45,2.33-4.83,3,.63-.26,1.84-.88,3.4-1.73.78-.44,1.64-.92,2.57-1.44.94-.5,1.94-1.04,2.98-1.59,2.05-1.14,4.32-2.21,6.46-3.24,2.15-1.01,4.26-1.83,6-2.51,1.16-.67,3.23-1.68,2.14-1.48l-2.18.94c-2.2.43,3.93-2.22,1.06-1.28,1.44-.71,2.93-1.58,4.65-2.31.86-.36,1.78-.72,2.74-1.06.97-.35,1.99-.68,3.11-.91l.99.36c-.07-.07-.81.04-1.67.23-.87.18-1.84.56-2.41.84.42-.22,1.06-.41,1.81-.61.76-.16,1.62-.31,2.48-.48,1.73-.33,3.44-.76,4.37-1.33-1.07.06-2.13.21-3.18.36,1.51-.63,3.24-1.21,5.08-1.79,1.83-.63,3.84-1,5.87-1.2-1.93-.33-.91.2-3.91-.07.67.13.34.25-.43.48-.77.22-2,.48-3.18.73-2.38.45-4.48,1.16-2.44,1.04-1.52,0-2.79.26-4.15.57-1.38.29-2.79.78-4.76,1.05.18.16,1.42-.09-1.83.94-.12.11-.43.32-.63.44-.1.03-.13.04-.22.07.07-.02.12-.03.18-.05-.13.08-.14.09.07-.02.78-.23,1.44-.33,1.73-.31-.73.46-2.31,1.26-3.94,1.98-1.64.71-3.25,1.49-4.02,1.98-1.86.73.67-.55-.41-.3l-2.32,1.44c-.44-.33-5.1,1.68-.98-.66l-3.82,1.88c-1.19.43-2.54,1.06-3.82,1.72-1.28.66-2.51,1.32-3.38,1.94-1.78.92-4.12,2.96-2.79,1.78-1.89,1.17-3.7,2.44-5.54,3.66l-.11-.06c-5.59,3.41-10.88,7.9-17.45,11.45-1.74,1.33-3.52,2.73-6.59,4.71l-.81.09c-2.23,1.71-7.14,4.47-7.9,5.49-.77.22-1.86.8-3.13,1.59-.31.2-.64.41-.98.63-.12.08-.08.05-.1.06l-.04.02-.08.04c-.1.06-.2.14-.31.23-.26.23-.54.46-.79.68-.07.05-.15.13-.2.16.01-.06.02-.12.03-.18.03-.13.07-.27.13-.41l-.72.72c.15-.52.24-.95.32-1.49.02-.14.05-.28.07-.42l.02-.11s0-.05.04-.2c.05-.22.11-.45.16-.68.21-.92.45-1.87.71-2.88l-.5.12c.67-3.57,3.08-8.74,5.01-14.08.03.42-.51,1.76-.95,2.69,3.23-6.03,4.44-13.67,7.7-19,.5-1.46,1.02-2.45,1.57-3.38-.06.13-.11.25-.14.36.07-.14.17-.35.27-.57.36-.58.74-1.17,1.15-1.82-.38.53-.73,1.05-1,1.51.52-1.07,1.23-2.72,1.93-4.34l.77-.45c.06-.13.11-.23.17-.37.94-1.46.42-1.34-.32-.68.33-.83.61-1.6.81-2.21,1.34-.88,1.93-4.22,3.6-5.49.04-.21.17-.57.4-1.07l-3.56-2.07c-1.08,2.23-3.88,6.93-3.69,7.97-.13,0-.44.41.05-.41-1.11,1.64-2.24,3.27-2.97,4.9l-.96.39-1.58,4.11c-1.72,2.02-2.48,2.83-1.49.37-2.76,5.7-2.48,4.47-4.77,9.36l-.19-.43c-1.02,1.62-2.24,4.48-3.13,5.27-1.49,1.59-4.39,6.01-7.82,11.1-3.42,5.09-7.35,10.85-10.78,15.15,2.17-1.08-3.34,3.89-2.85,4.77-.59.37-1.6,1.53-.77-.06-3.02,4.73-5.2,6.63-6.86,10.2-.6.36.37-1.21-.09-.84-.21.4-.85,1.58-1.32,1.96-.47.37.29-.8.71-1.59-3.31,4.66-2.96,5.63-2.56,6.44-2.02,2.12-2.84,3.31-3.66,5.31-.81.66-2.03,1.85,0-1.07-1.2,1.61-7.62,9.57-7.23,10.12-.5.41-1.73,2.2-1.99,2.66-2.77,3.54-3.03,3.84-5.69,7.36l.83-.9c-.46,1.85-2.12,3-4.23,5.86v-.13c-5.49,6.06-1.97,2.94-7.47,8.84l.65-.04c.27.98-3.04,3.68-5.72,6.7l-5.87,6.6,7.49-4.93c.85-.56,1.65-1.16,2.37-1.77-.51.24-1,.51-1.51.76.91-.9,2.57-1.63,4.26-2.24,1.69-.62,3.43-1.09,4.54-1.67.51-.2-.67.56-1.28,1,2.95-1.4,3.09-1.56,2.96-1.81-.11-.21-.48-.46,1.67-1.63.96-.09-.65,1.27,2.31-.11.79-.22,2.81-1.48,5.27-2.68,2.45-1.22,5.35-2.37,7.6-2.65-1.02.02-2.05.04.09-.77,1.58-.51,3.78-.81,5.95-1.1,1.09-.15,2.17-.26,3.18-.44,1.01-.15,1.94-.33,2.72-.59l-.38-3.73c-.19.05-.37.11-.54.16-.46-.03-.64-.08-.66-.15-2.73.38-8.86,1.3-10.42,2-1.37-.63-5.59.2-9.4,1.23-3.83.99-7.27,2.1-7.43,1.35-2.73.7-5.45,1.49-8.14,2.31l.17-.21c-2.6.75-4.33,1.37-5.61,1.94-1.28.55-2.12,1.05-2.95,1.54-1.21.32-.4-.12-.33-.23-1.89.58-3.33,1.1-4.54,1.54-.15.06-.3.11-.44.16l-.21.08-.28.11c-.38.16-.74.31-1.09.45-.69.3-1.34.58-1.97.85-1.3.53-2.28,1.17-3.39,1.86-.27.17-.56.35-.85.53-.14.09-.29.18-.44.28l-.22.14s-.08.05-.11.07l.13.12c.71.63,1.48,1.3,2.33,1.94-.01.21-.01.44.02.67.26.18.61.47,1.05.84.46.36,1.05.81,1.74,1.31.37.23.77.48,1.19.75.21.14.43.27.67.39.21.11.43.22.66.34.37.21.77.39,1.19.57.42.19.85.37,1.31.52,1.82.66,3.95,1.13,6.16,1.19,2.2.07,4.46-.27,6.45-1.01-.06.08-.2.21-.84.46.36-.12.72-.23,1.09-.35l11.72-3.79-12.21-.11c-8.53-.08-19.65-2.42-22.78-.85l-5.71.14c7.35.53-1.14.72,1.87,1.18-2.9-.05-7.45-.94-3.89-.85l.55.12c1.36-.87-9.13-.82-8.89-1.45-14.48-.73-28.57-2.01-42.13-2.77l1.52.81-4.73-.3c-1.23-.24-1.64-.66,1.74-.45-1.75-.51-5.68.04-5.78.2-6.59-.65,2.63-.71.6-.84l-2.76-.09.62.12c-2.25.18-2.46.48-6.52.23-2.56-.28-1.29-.52-2.3-.6,0-.05-.33-.09-1.55-.1l-5.96-.38,2.35.7c-2.66.14-5.6-.33-2.89.47-3.98-1.22-22.22-1.55-24.68-2-3.72.22-7.37.02-11.9-.27,1.12.18,1.76.86-2.14.58,1.5-1.26-7.12-.96-10.22-2.1,2.78.79-11.1-.44-6.73.71-3.25-.28-.17-.51-2.62-.96-1.94.03-3.98-.04-6.1-.16-1.06-.07-2.13-.14-3.23-.21-1.15-.09-2.32-.18-3.51-.27-1.7-.12-3.42-.25-5.16-.38-.89-.06-1.78-.13-2.68-.19l-.34-.02h-.27s-.54.01-.54.01l-1.09.02c-1.45.04-2.91.08-4.38.12l-.54.02c-.08,0-.21,0-.24.02l.2.23.81.93c.54.61,1.11,1.28,1.65,1.83.41.18-.45-1.09,1.69.81l.7,1.05.81,1.08.86,1.15,1.14,1.2c.56.43,1.03.71,1.46.94.47.19.88.36,1.36.55.85.34,2.08,1.09,3.45,2.08-.39-.37-.96-.91.24-.36,3.75,2.12,8.02,3.36,12.39,3.83,4.38.46,8.88-.04,13.13-1.35l-.7-3.15c-5.33.79-10.66,1.57-15.94,1.56-5.26.01-10.54-.82-15.01-3.04,2.16,1.11.61.68-1.1-.04,1.08.55-.19.39-.07.7-2.27-1.2-4.38-2.65-6.18-4.36-.73-.16-2.31-1.44-3.55-2.91-1.28-1.45-2.15-3.06-2.62-3.25l.64,1,.71.95c-1.17-1.11-.98.05-.38,1.53.56,1.49,1.67,3.18,1.15,3.35,1.7,1.07,3.5,2.9,5.93,4.56,1.2.85,2.56,1.59,4.02,2.2,1.48.56,3.06,1,4.7,1.05,1.34.53-1.25.01-.57.41,1.71,0,3.61.34,7.2.81l-.42.07c4.47.31,7.79.17,11.09.01,3.3-.17,6.58-.46,10.91-.93l-.91-4.07c-.41.09-.9.21-1.43.33-.27.06-.54.13-.83.19-.29.04-.59.09-.9.14l.85.33c-2.22.37-2.71.23-3.76.22-1.25.49.32.35,1.92.18.79-.14,1.59-.27,2.06-.3.46-.06.6.01.07.36-.8-.12-2.16.09-3.82.15-1.66.12-3.62.09-5.54-.05-3.85-.35-7.45-1.58-8.17-2.45-3.17-1.28.73.93-2.45-.42-.25-.2-.47-.43-.7-.66l-.95-.06c-.24-.13-.5-.28-.67-.39-.14-.09-.22-.18-.31-.26-.18-.16-.29-.3-.36-.42-.14-.23-.07-.39.06-.46.15.15.6.29.8.39-.36-.42-.9-.72-1.51-1.16-.6-.41-1.27-.93-1.24-1.04.12.26.31.55.54.86-.44-.35-.9-.72-1.31-1.17l-.31-.33-.15-.17s.12,0,.17-.01c.28.01.56.02.84.03,1.17.06,2.37.12,3.57.18,1.22.06,2.44.12,3.65.18,1.36.05,2.71.11,4.04.16,2.65.09,5.23.14,7.64.12l-.72-.26c7.38-.02,5.88.56,13.97.8l-.3.04c1.63-.14,3.79-.13,6,.01-2.05.15,3.81.71,1.12.86,8-.02,3.96-.14,9.28-.68l1.2.44c1.81-.24,1.97-.41,6.01-.29-3.33.14,2.54.7-1.18.92,8.42,1.26,12.61-.14,16.43,1.25,3.94-.82-7.3-.96-5.11-1.06-1.8-.43,3.25-.59,5.9-.35,2.7.17,4.53,1.56,11.33,1.9-.68-.04-.73.03-1.4,0,2.53.4,5.01-.09,8.11.51,1.78-.53,4.05.25,4.6-.51l-6.25-.15c3.55-.02,6.92-.76,12.72,0-.46.14-2.21.25-3.41.31,1.69.32,3.29.02,5.04.36-.55.76-7.59-.23-11.41.17,1.81.43,7.2-.19,5.25.57,2.8-.94,6.7.5,11.35-.09l-.33.46c.73-.04,2.26-.18,3.6-.09l-2.46.48c3.76-.32,7.17.84,10.76.75-7.49-.39-1.65-.66-4.8-1.18,9.27-.14,5.25,1.52,15.6,1.85-1.4,0-5.24-.57-3.04-.67,1.96.2,4.55.52,5.75.84,6.86.27-1.03-.54,1.91-.68,2.3.7,3.38-.05,6.39-.08v.48c7.79.73,2.12-.89,9.13-.14l-3.01.51,3.67.02-.79.51c4.01-.19,5.24-.02,9.14.34-.89-.39.56-.85,4.02-.68,2.34.41-1.35.39,3.56.58-1.12.24-2.36.56-4.47,0-.23.15-1.11.24-1.34.39,2.52.47,6.38.42,8.16.51-.68-.05-1.5-.12-1.91-.22l7.14-.29c1.11.24.21.34-.67.43,1.44.03,2.45-.14,4.57-.07-.57.36-.46.77-3.47.8l6.55-.07-.63-5.09-.2.07c-.43,0-2.98.16-2.27-.12-1.55.12-3.48.32-5.59.11-1.05-.12-2.14-.31-3.18-.69-.26-.09-.53-.17-.77-.29l-.49-.22c-.17-.09-.33-.19-.44-.32-.13,0-.35-.03-.71-.23-.26-.24-.55-.53-.56-.75.37-.11.75-.23,1.13-.34.43-.14.85-.3,1.27-.5.52-.23,1.06-.46,1.61-.7.59-.27,1.19-.55,1.8-.86l3.15-.39c3.99-1.54-4.27.51,2.4-2.03,4.75-1.77,1.98,0,3.73-.35,2.28-1.08,6.31-3,10.98-3.49-1.46.5-2.66.65-4.03,1.08ZM214.2,112.21c.93-.53,2.82-1.57,3.64-1.59-.94.96-1.91,1.02-3.64,1.59ZM234.24,77.62c-.32.72-1.09,1.64-2.03,2.63.54-.82,1.21-1.71,2.03-2.63ZM314.94,24.8s-.06.05-.09.07c-2.15.95-1.39.62.09-.07ZM319.38,22.77c.41-.28.35-.32.13-.29-.25.26-1.23.76-2.36,1.28.37-.04.97-.24,2.23-.99ZM101.8,120.92l.93.18c-2.12.03-1.52-.07-.93-.18Z"/>
  <path class="cls-1" d="M229.31,85.48c-.24.19-.36.2-.47.2-.18.38-.11.44.47-.2Z"/>
  <path class="cls-1" d="M187.09,124.19l.03.03s.09-.01.12-.03h-.16Z"/>
  <path class="cls-1" d="M255.55,68.15c.47-1.58.79-2.51,1.05-3.17-.15.12-.45.91-1.05,3.17Z"/>
  <path class="cls-1" d="M343.44,12.83c-1.02.3-2.02.64-3.03.96,1.47-.44,2.03-.48,2.79-.61-.09-.09-.72-.1.24-.35Z"/>
  <path class="cls-1" d="M370.69,13.73c.45,0,.95.1,1.4.09l-.1-.24c-1.92-.21-3.27-.16-1.3.14Z"/>
  <path class="cls-1" d="M346.65,13.78c.33.38,2.19-.28,4.36-.61-.13.02-.25.04-.38.06.27-.33-.16-.36-.95-.25-.79.1-1.91.48-3.03.8Z"/>
  <path class="cls-1" d="M351.51,13.08c.67-.12,1.35-.23,2-.3.23-.26-.82.07-2,.3Z"/>
  <path class="cls-1" d="M324.87,19.89c.99-.33.39-.74.99-.83.85-.95-6.09,3.42-.99.83Z"/>
  <polygon class="cls-1" points="348.64 14.72 347.78 14.39 346.68 15.04 348.64 14.72"/>
  <path class="cls-1" d="M332.14,19.07c1.08-.41,2.2-.69,3.31-1.03-.08-.06.32-.25.82-.46-1.02.33-2.08.67-2.88.93-.8.27-1.31.51-1.25.56Z"/>
  <path class="cls-1" d="M336.26,17.58c1.06-.34,2.04-.73,2.62-.95-.59.14-1.8.62-2.62.95Z"/>
  <polygon class="cls-1" points="344.06 15.86 343.05 16.02 340.69 16.64 344.06 15.86"/>
  <path class="cls-1" d="M299.23,36.25c-1.03.72-2.07,1.43-3.09,2.17-.22.36.68-.13,1.83-.95.69-.59,1.84-1.4,1.26-1.22Z"/>
  <path class="cls-1" d="M309.65,31.46c-.93.42-1.05.36-1.63.5l.22.59,1.41-1.09Z"/>
  <path class="cls-1" d="M300.4,37.31c-.22.35-4.32,3.35-.33.75.23-.35,3.32-2.49.33-.75Z"/>
  <path class="cls-1" d="M259.74,58.56l-.25.98,1.34-1.07c-.38.1-.76.14-1.09.09Z"/>
  <path class="cls-1" d="M275.44,10.51c-2.23,3.93.08,1.24-1.98,4.76-.24,1.05,1.67-2.89,1.39-1.82.95-2.56,1.76-3.75.59-2.94Z"/>
  <path class="cls-1" d="M274.85,13.46c-.15.41-.31.84-.46,1.31.29-.73.4-1.09.46-1.31Z"/>
  <path class="cls-1" d="M5.71,118.26c-.5-.7-.91-1.44-1.31-2.17.21.5.41,1.03.64,1.54l.67.63Z"/>
  <path class="cls-1" d="M2.46,114.46l.34-.81-1.07-1.25c.23.55.64,1.6.73,2.06Z"/>
  <path class="cls-1" d="M206.21,114.58l-.13.25c.48-.08,1.1-.39,2.36-1-.74.25-1.5.47-2.24.75Z"/>
  <polygon class="cls-1" points="229.88 111.97 230.53 111.9 229.24 111.47 229.88 111.97"/>
  <path class="cls-1" d="M198.82,119.6c1.25-.36,2.67-.96,3.94-1.3-2.69.93-4.5.71-3.94,1.3Z"/>
</svg>